<svg xmlns="http://www.w3.org/2000/svg" xmlns:xlink="http://www.w3.org/1999/xlink" width="541" height="206" viewBox="0 0 541 206">
  <defs>
    <filter id="長方形_255" x="-1143" y="-39" width="1735" height="296" filterUnits="userSpaceOnUse">
      <feOffset dx="6" dy="6" input="SourceAlpha"/>
      <feGaussianBlur stdDeviation="15" result="blur"/>
      <feFlood flood-color="#cfe2ea" flood-opacity="0.078"/>
      <feComposite operator="in" in2="blur"/>
      <feComposite in="SourceGraphic"/>
    </filter>
    <clipPath id="clip-path">
      <rect id="長方形_256" data-name="長方形 256" width="541" height="206" transform="translate(1379)" fill="#fff"/>
    </clipPath>
    <clipPath id="clip-path-2">
      <g transform="matrix(1, 0, 0, 1, 0, 0)" filter="url(#長方形_255)">
        <rect id="長方形_255-2" data-name="長方形 255" width="1645" height="206" transform="translate(275)" fill="#f2f2f2"/>
      </g>
    </clipPath>
  </defs>
  <g id="profile_bak" transform="translate(-1379)" clip-path="url(#clip-path)">
    <g id="マスクグループ_1" data-name="マスクグループ 1" clip-path="url(#clip-path-2)">
      <g id="night_bak" transform="translate(1180 -227)" opacity="0.5">
        <path id="前面オブジェクトで型抜き_1" data-name="前面オブジェクトで型抜き 1" d="M-21.818,43H-265.861V-44H26V-6H-21.5a24.345,24.345,0,0,0-9.536,1.925,24.418,24.418,0,0,0-7.788,5.251,24.42,24.42,0,0,0-5.251,7.788A24.348,24.348,0,0,0-46,18.5a24.346,24.346,0,0,0,1.925,9.536,24.419,24.419,0,0,0,5.251,7.788,24.418,24.418,0,0,0,7.788,5.251A24.335,24.335,0,0,0-21.818,43Z" transform="translate(411 296)" fill="#5082f4"/>
        <path id="前面オブジェクトで型抜き_2" data-name="前面オブジェクトで型抜き 2" d="M-21.818,43H-265.861V-44H26V-6H-21.5a24.345,24.345,0,0,0-9.536,1.925,24.418,24.418,0,0,0-7.788,5.251,24.42,24.42,0,0,0-5.251,7.788A24.348,24.348,0,0,0-46,18.5a24.346,24.346,0,0,0,1.925,9.536,24.419,24.419,0,0,0,5.251,7.788,24.418,24.418,0,0,0,7.788,5.251A24.335,24.335,0,0,0-21.818,43Z" transform="translate(306 395)" fill="#5082f4"/>
        <path id="パス_592" data-name="パス 592" d="M-65.5,0h264a24.5,24.5,0,0,1,0,49h-264A24.5,24.5,0,0,1-90,24.5,24.5,24.5,0,0,1-65.5,0Z" transform="translate(223 339)" fill="#5082f4"/>
        <path id="パス_595" data-name="パス 595" d="M-65.5,0h264a24.5,24.5,0,0,1,0,49h-264A24.5,24.5,0,0,1-90,24.5,24.5,24.5,0,0,1-65.5,0Z" transform="translate(87 438)" fill="#5082f4"/>
        <path id="パス_519" data-name="パス 519" d="M1155.348,621.168h185.545a24.338,24.338,0,0,0,0-48.675h-4.625a23.1,23.1,0,0,1-23.016-24.659c.794-12.287,11.52-21.581,23.8-21.581h129.1a21.9,21.9,0,0,0,0-43.807h-47.343a23.1,23.1,0,0,1-23.015-24.657c.794-12.29,11.52-21.583,23.8-21.583h22.275a21.9,21.9,0,0,0,0-43.8h-40.059a23.1,23.1,0,0,1-23.016-24.659c.794-12.289,11.52-21.581,23.8-21.581h83.5a26.173,26.173,0,0,0,26.172-26.172h0a26.171,26.171,0,0,0-26.172-26.172h-17.529a23.063,23.063,0,0,1-23.064-23.064v-.112a23.063,23.063,0,0,1,23.064-23.064h44.866a23.111,23.111,0,0,0,23.112-23.11v0a23.111,23.111,0,0,0-23.112-23.11H1325.343a23.063,23.063,0,0,1-23.064-23.064v-.112a23.063,23.063,0,0,1,23.064-23.064h62.472a24.928,24.928,0,0,0,24.928-24.929h0a24.927,24.927,0,0,0-24.928-24.926H969.058a24.928,24.928,0,0,0-24.928,24.926h0a24.928,24.928,0,0,0,24.928,24.929h64.9a23.063,23.063,0,0,1,23.064,23.064v.112a23.063,23.063,0,0,1-23.064,23.064H845.852a23.111,23.111,0,0,0-23.112,23.11v0a23.111,23.111,0,0,0,23.112,23.11h44.866a23.063,23.063,0,0,1,23.064,23.064v.112a23.063,23.063,0,0,1-23.064,23.064H873.189c-14.455,0-66.171,11.717-66.171,26.172h0a26.172,26.172,0,0,0,26.171,26.172h83.5c12.285,0,23.011,9.291,23.8,21.581A23.1,23.1,0,0,1,917.482,392.4H877.424a21.9,21.9,0,0,0,0,43.8H899.7c12.284,0,23.01,9.293,23.8,21.583a23.1,23.1,0,0,1-23.015,24.657H853.146a21.9,21.9,0,0,0,0,43.807H956.788c12.285,0,23.011,9.294,23.8,21.581a23.1,23.1,0,0,1-23.016,24.659H928.408a24.338,24.338,0,0,0,0,48.675h226.94Z" transform="translate(-796.74 -330.668)" fill="#5082f4"/>
        <circle id="楕円形_37" data-name="楕円形 37" cx="168" cy="168" r="168" transform="translate(298 69)" fill="#fff" opacity="0.232"/>
        <rect id="長方形_169" data-name="長方形 169" width="76" height="16" rx="8" transform="translate(289 219)" fill="#fff" opacity="0.501"/>
        <rect id="長方形_170" data-name="長方形 170" width="76" height="16" rx="8" transform="translate(337 180)" fill="#fff" opacity="0.501"/>
      </g>
    </g>
  </g>
</svg>
