<svg preserveAspectRatio="none" xmlns="http://www.w3.org/2000/svg" width="742.821" height="712.408"><g transform="translate(3 225.408)"><path data-name="前面オブジェクトで型抜き 1" d="M389.182 339H145.139v-87H437v38h-47.5a24.345 24.345 0 0 0-9.536 1.925 24.418 24.418 0 0 0-7.788 5.251 24.42 24.42 0 0 0-5.251 7.788A24.348 24.348 0 0 0 365 314.5a24.346 24.346 0 0 0 1.925 9.536 24.419 24.419 0 0 0 5.251 7.788 24.418 24.418 0 0 0 7.788 5.251 24.335 24.335 0 0 0 9.218 1.925z" fill="#5082f4"/><path data-name="前面オブジェクトで型抜き 2" d="M284.182 438H40.139v-87H332v38h-47.5a24.345 24.345 0 0 0-9.536 1.925 24.418 24.418 0 0 0-7.788 5.251 24.42 24.42 0 0 0-5.251 7.788A24.348 24.348 0 0 0 260 413.5a24.346 24.346 0 0 0 1.925 9.536 24.419 24.419 0 0 0 5.251 7.788 24.418 24.418 0 0 0 7.788 5.251 24.335 24.335 0 0 0 9.218 1.925z" fill="#5082f4"/><path data-name="パス 592" d="M157.5 339h264a24.5 24.5 0 0 1 0 49h-264a24.5 24.5 0 0 1-24.5-24.5 24.5 24.5 0 0 1 24.5-24.5z" fill="#5082f4"/><path data-name="パス 595" d="M21.5 438h264a24.5 24.5 0 0 1 0 49h-264A24.5 24.5 0 0 1-3 462.5 24.5 24.5 0 0 1 21.5 438z" fill="#5082f4"/><path data-name="パス 519" d="M358.608 290.5h185.545a24.338 24.338 0 0 0 0-48.675h-4.625a23.1 23.1 0 0 1-23.016-24.659c.794-12.287 11.52-21.581 23.8-21.581h129.1a21.903 21.903 0 0 0 0-43.807h-47.343a23.1 23.1 0 0 1-23.015-24.657c.794-12.29 11.52-21.583 23.8-21.583h22.275a21.9 21.9 0 0 0 0-43.8H605.07a23.1 23.1 0 0 1-23.016-24.659c.794-12.289 11.52-21.581 23.8-21.581h83.5a26.173 26.173 0 0 0 26.172-26.172 26.171 26.171 0 0 0-26.172-26.172h-17.529a23.063 23.063 0 0 1-23.064-23.064v-.112a23.063 23.063 0 0 1 23.064-23.064h44.866a23.111 23.111 0 0 0 23.112-23.11 23.111 23.111 0 0 0-23.112-23.11H528.603a23.063 23.063 0 0 1-23.064-23.064v-.112a23.063 23.063 0 0 1 23.064-23.064h62.472a24.928 24.928 0 0 0 24.928-24.929 24.927 24.927 0 0 0-24.928-24.926H172.318a24.928 24.928 0 0 0-24.928 24.926 24.928 24.928 0 0 0 24.928 24.929h64.9a23.063 23.063 0 0 1 23.064 23.064v.112a23.063 23.063 0 0 1-23.064 23.064H49.112A23.111 23.111 0 0 0 26-106.196a23.111 23.111 0 0 0 23.112 23.11h44.866a23.063 23.063 0 0 1 23.064 23.064v.112a23.063 23.063 0 0 1-23.064 23.064H76.449c-14.455 0-66.171 11.717-66.171 26.172a26.172 26.172 0 0 0 26.171 26.172h83.5c12.285 0 23.011 9.291 23.8 21.581a23.1 23.1 0 0 1-23.007 24.653H80.684a21.9 21.9 0 0 0 0 43.8h22.276c12.284 0 23.01 9.293 23.8 21.583a23.1 23.1 0 0 1-23.015 24.657H56.406a21.903 21.903 0 0 0 0 43.807h103.642c12.285 0 23.011 9.294 23.8 21.581a23.1 23.1 0 0 1-23.016 24.659h-29.164a24.338 24.338 0 0 0 0 48.675h226.94z" fill="#5082f4"/><circle data-name="楕円形 37" cx="168" cy="168" r="168" transform="translate(298 69)" fill="#fff" opacity=".232"/><rect data-name="長方形 169" width="76" height="16" rx="8" transform="translate(289 219)" fill="#fff" opacity=".501"/><rect data-name="長方形 170" width="76" height="16" rx="8" transform="translate(337 180)" fill="#fff" opacity=".501"/></g></svg>