<svg xmlns="http://www.w3.org/2000/svg" viewBox="0 0 542 490"><defs><style>.cls-1{fill:none;}.cls-2{fill:#5082f4;}.cls-3,.cls-4{fill:#fff;isolation:isolate;}.cls-3{opacity:0.23;}.cls-4{opacity:0.5;}</style></defs><title>bg</title><g id="レイヤー_2" data-name="レイヤー 2"><g id="レイヤー_1-2" data-name="レイヤー 1"><path class="cls-1" d="M526.26,5.78a26.42,26.42,0,0,1-3.78,4.88l-.08.08a25.25,25.25,0,0,1-3,2.63l-.09.07c-.52.38-1.06.74-1.61,1.09l-.2.12c-.56.34-1.12.67-1.7,1h0c-.57.29-1.16.56-1.75.81l-.24.1c-.58.24-1.16.46-1.76.65l-.32.1c-.61.2-1.23.37-1.86.52h-.05c-.61.14-1.24.26-1.87.36l-.34,0c-.62.09-1.25.16-1.89.2l-.37,0c-.66,0-1.33.05-2,0H419.8c-12.28,0-23,9.29-23.8,21.58V41.6h0a23.1,23.1,0,0,0,23.07,23.13h40a21.9,21.9,0,0,1,0,43.8H436.8c-12.28,0-23,9.29-23.8,21.58v1.57c0,.56,0,1.12.06,1.67l0,.33c.05.55.11,1.1.19,1.65v0c.09.57.2,1.12.33,1.67l0,.11c.13.56.29,1.12.47,1.67h0q4,5.34,7.65,11a23,23,0,0,0,14.3,5H484.3a21.91,21.91,0,0,1-.94,43.81h-40.5A168.07,168.07,0,0,1,206.37,391H98.5a24.5,24.5,0,0,0-22.58,34c1.26,2.91,3,6.55,5.26,8.78a24.34,24.34,0,0,0,17,7.18H99.5a24.5,24.5,0,0,1,0,49H542V0H528.84a26,26,0,0,1-2.57,5.76Z"/><path class="cls-2" d="M140.12,146.94l.2-.31Z"/><path class="cls-2" d="M148.82,135.06l.76-.95Z"/><path class="cls-2" d="M142.09,144.06c.14-.22.29-.43.44-.64C142.38,143.63,142.23,143.84,142.09,144.06Z"/><path class="cls-2" d="M144.22,141.06c.2-.26.39-.53.59-.8C144.61,140.53,144.42,140.8,144.22,141.06Z"/><path class="cls-2" d="M146.47,138.05l.69-.9Z"/><path class="cls-2" d="M151.25,132.09l.81-1Z"/><path class="cls-2" d="M156.33,126.31l.88-1Z"/><path class="cls-2" d="M159,123.49l.88-.9Z"/><path class="cls-2" d="M153.75,129.17l.85-1Z"/><path class="cls-2" d="M124.17,177.14l.3-.73Z"/><path class="cls-2" d="M120.18,188.1l.24-.71Z"/><path class="cls-2" d="M128.93,166.44l.12-.25Z"/><path class="cls-2" d="M119,191.76l.18-.61Z"/><path class="cls-2" d="M118,195.36c0-.13.07-.26.1-.39C118.08,195.1,118,195.23,118,195.36Z"/><path class="cls-2" d="M121.42,184.44l.27-.77Z"/><path class="cls-2" d="M122.75,180.78c.1-.26.19-.52.29-.77C122.94,180.26,122.85,180.52,122.75,180.78Z"/><path class="cls-2" d="M127.26,170l.24-.53Z"/><path class="cls-2" d="M125.67,173.54c.09-.22.19-.44.29-.67C125.86,173.1,125.76,173.32,125.67,173.54Z"/><path class="cls-2" d="M161.69,120.73l.85-.83Z"/><path class="cls-2" d="M167.31,115.4l.32-.28Z"/><path class="cls-2" d="M211.24,86.68c.63-.29,1.27-.56,1.91-.84C212.51,86.12,211.87,86.39,211.24,86.68Z"/><path class="cls-2" d="M218.52,83.61c1.22-.48,2.43-.94,3.66-1.39C221,82.67,219.74,83.13,218.52,83.61Z"/><path class="cls-2" d="M214.86,85.1c.7-.3,1.41-.58,2.11-.86C216.27,84.52,215.56,84.8,214.86,85.1Z"/><path class="cls-2" d="M164.47,118l.75-.7Z"/><path class="cls-2" d="M223.35,81.8l2.59-.91Z"/><path class="cls-2" d="M235.32,78l2.14-.58Z"/><path class="cls-2" d="M231.42,79.14l2.16-.64Z"/><path class="cls-2" d="M204.14,90.07l1.74-.86Z"/><path class="cls-2" d="M227.5,80.38l2.24-.73Z"/><path class="cls-2" d="M207.66,88.33l1.82-.84Z"/><path class="cls-2" d="M184.09,102.06l1.39-1Z"/><path class="cls-2" d="M175.36,108.57,176,108Z"/><path class="cls-2" d="M178,106.51c.37-.29.73-.57,1.11-.85C178.74,105.94,178.38,106.22,178,106.51Z"/><path class="cls-2" d="M112.16,247l-.06-1.49Z"/><path class="cls-2" d="M190.54,97.79l1.53-1Z"/><path class="cls-2" d="M197.23,93.78l1.63-.91Z"/><path class="cls-2" d="M187.28,99.89l1.47-1Z"/><path class="cls-2" d="M193.86,95.75c.52-.32,1-.63,1.58-.94C194.91,95.12,194.38,95.43,193.86,95.75Z"/><path class="cls-2" d="M200.66,91.89c.56-.3,1.12-.6,1.69-.89C201.78,91.29,201.22,91.59,200.66,91.89Z"/><path class="cls-2" d="M181,104.28l1.28-.94Z"/><path class="cls-2" d="M483.36,198.63a21.91,21.91,0,0,0,.94-43.81H436.07a23,23,0,0,1-14.3-5,167.17,167.17,0,0,1,21.09,48.8Z"/><path class="cls-2" d="M413.62,137l0,.11Z"/><path class="cls-2" d="M505.3,18.45c-.66,0-1.33.05-2,0C504,18.5,504.64,18.48,505.3,18.45Z"/><path class="cls-2" d="M239.24,77l2.14-.52Z"/><path class="cls-2" d="M172.46,369.07l-.13-.12Z"/><path class="cls-2" d="M413.28,135.34v0Z"/><path class="cls-2" d="M176.92,372.66h0Z"/><path class="cls-2" d="M181.67,376.22l-.33-.24Z"/><path class="cls-2" d="M201.37,388.49l-.3-.16Z"/><path class="cls-2" d="M191.33,382.71l-.39-.25Z"/><polygon class="cls-2" points="206.37 391.04 206.37 391.04 206.37 391.04 206.37 391.04"/><path class="cls-2" d="M522.4,10.74a25.25,25.25,0,0,1-3,2.63A25.25,25.25,0,0,0,522.4,10.74Z"/><path class="cls-2" d="M519.27,13.44c-.52.38-1.06.74-1.61,1.09C518.21,14.18,518.75,13.82,519.27,13.44Z"/><path class="cls-2" d="M526.26,5.78a26.42,26.42,0,0,1-3.78,4.88A26.42,26.42,0,0,0,526.26,5.78Z"/><path class="cls-2" d="M517.46,14.65c-.56.34-1.12.67-1.7,1C516.34,15.32,516.9,15,517.46,14.65Z"/><path class="cls-2" d="M112.47,252.57c0-.32,0-.63-.06-.95C112.43,251.94,112.44,252.25,112.47,252.57Z"/><path class="cls-2" d="M507.56,18.22c-.62.09-1.25.16-1.89.2C506.31,18.38,506.94,18.31,507.56,18.22Z"/><path class="cls-2" d="M515.75,15.62c-.57.29-1.16.56-1.75.81C514.59,16.18,515.18,15.91,515.75,15.62Z"/><path class="cls-2" d="M509.77,17.81c-.61.14-1.24.26-1.87.36C508.53,18.07,509.16,18,509.77,17.81Z"/><path class="cls-2" d="M513.76,16.53c-.58.24-1.16.46-1.76.65C512.6,17,513.18,16.77,513.76,16.53Z"/><path class="cls-2" d="M511.68,17.28c-.61.2-1.23.37-1.86.52C510.45,17.65,511.07,17.48,511.68,17.28Z"/><path class="cls-2" d="M119.1,288.44c-.12-.42-.25-.84-.38-1.27C118.85,287.6,119,288,119.1,288.44Z"/><path class="cls-2" d="M120.72,293.55l-.21-.65Z"/><path class="cls-2" d="M117.31,282.05Z"/><path class="cls-2" d="M122.9,299.61c-.14-.35-.27-.7-.4-1.05C122.63,298.91,122.76,299.26,122.9,299.61Z"/><path class="cls-2" d="M114.88,271.06l-.18-.93Z"/><path class="cls-2" d="M113.83,264.86c-.06-.42-.11-.84-.17-1.26C113.72,264,113.77,264.44,113.83,264.86Z"/><path class="cls-2" d="M113.11,259.26c0-.44-.11-.88-.15-1.32C113,258.38,113.06,258.82,113.11,259.26Z"/><path class="cls-2" d="M124.92,304.71c-.13-.31-.25-.62-.38-.94C124.67,304.09,124.79,304.4,124.92,304.71Z"/><path class="cls-2" d="M168.27,365.45l-.35-.31Z"/><path class="cls-2" d="M116.06,276.84c-.1-.45-.19-.9-.29-1.35C115.87,275.94,116,276.39,116.06,276.84Z"/><path class="cls-2" d="M152.16,349l-.47-.55Z"/><path class="cls-2" d="M148.44,344.48l-.2-.25Z"/><path class="cls-2" d="M160,357.53l-.47-.48Z"/><path class="cls-2" d="M144.9,339.86l-.35-.48Z"/><path class="cls-2" d="M141.72,335.41l-.46-.66Z"/><path class="cls-2" d="M127.35,310.22l-.3-.63Z"/><path class="cls-2" d="M135.48,325.69c-.17-.29-.35-.58-.52-.88C135.13,325.11,135.31,325.4,135.48,325.69Z"/><path class="cls-2" d="M129.86,315.44l-.49-1Z"/><path class="cls-2" d="M138.25,330.21l-.08-.14Z"/><path class="cls-2" d="M413.06,133.36l0,.33Z"/><path class="cls-2" d="M328.32,79.07l1.16.34Z"/><path class="cls-2" d="M319,76.57l1.58.38Z"/><path class="cls-2" d="M323.6,77.73l1.49.4Z"/><path class="cls-2" d="M338.22,82.37l.93.35Z"/><path class="cls-2" d="M351.09,87.75l1,.47Z"/><path class="cls-2" d="M342.48,84l1.22.5Z"/><path class="cls-2" d="M355.92,90.1l.22.11Z"/><path class="cls-2" d="M346.75,85.79l1.22.54Z"/><path class="cls-2" d="M289.52,72.27l1.77.12Z"/><path class="cls-2" d="M294.28,72.61l1.78.16Z"/><path class="cls-2" d="M284.77,72.07l1.53.06Z"/><path class="cls-2" d="M304.3,73.76l1.05.14Z"/><path class="cls-2" d="M310,74.67l.93.17Z"/><path class="cls-2" d="M299.11,73.09l1.63.18Z"/><path class="cls-2" d="M314.5,75.55l1.48.33Z"/><path class="cls-2" d="M384.22,108.24l.07.05Z"/><path class="cls-2" d="M364.31,94.66l.72.43Z"/><path class="cls-2" d="M408,131.19l.37.44Z"/><path class="cls-2" d="M405,127.75l.16.17Z"/><path class="cls-2" d="M394.82,117.37l.34.32Z"/><polygon class="cls-2" points="112.96 222 112.96 222 112.96 222 112.96 222"/><path class="cls-2" d="M526.27,5.76A26,26,0,0,0,528.84,0h0A26.42,26.42,0,0,1,526.27,5.76Z"/><polygon class="cls-2" points="414.12 138.82 414.12 138.82 414.12 138.82 414.12 138.82"/><path class="cls-2" d="M411,134.82l.33.41Z"/><path class="cls-2" d="M372.18,99.54l.77.51Z"/><path class="cls-2" d="M368.23,97l.87.54Z"/><path class="cls-2" d="M376.33,102.36l.35.24Z"/><path class="cls-2" d="M387.74,111.1l.5.43Z"/><path class="cls-2" d="M391.24,114.12l.55.49Z"/><path class="cls-2" d="M275.8,72.05c1.4,0,2.8,0,4.2,0C278.6,72,277.2,72,275.8,72.05Z"/><path class="cls-2" d="M263.36,72.82c.78-.08,1.57-.14,2.36-.21C264.93,72.68,264.14,72.74,263.36,72.82Z"/><path class="cls-2" d="M247.16,75.22l2.17-.42Z"/><path class="cls-2" d="M255.2,73.83l2.24-.32Z"/><path class="cls-2" d="M271.62,72.21c.93,0,1.87-.08,2.8-.11C273.49,72.13,272.55,72.16,271.62,72.21Z"/><path class="cls-2" d="M267.48,72.46c.83-.06,1.66-.11,2.5-.15C269.14,72.35,268.31,72.4,267.48,72.46Z"/><path class="cls-2" d="M251.16,74.47l2.21-.36Z"/><path class="cls-2" d="M259.26,73.27l2.29-.26Z"/><path class="cls-2" d="M243.18,76.06l2.16-.47Z"/><path class="cls-3" d="M421.77,149.83q-3.6-5.66-7.65-11A23.12,23.12,0,0,0,421.77,149.83Z"/><path class="cls-3" d="M330.46,220.21v1.52a23.11,23.11,0,0,0,23.07,23.14h4.62a24.34,24.34,0,0,1,0,48.67H198.55a24.5,24.5,0,0,0,4.63,48.5H235.5a24.5,24.5,0,0,1,0,49H206.37A168.1,168.1,0,0,0,442.86,198.63h-88.6C342,198.63,331.26,207.92,330.46,220.21Z"/><path class="cls-2" d="M411.32,135.23l-.33-.41c-.86-1.07-1.74-2.14-2.63-3.19l-.37-.44q-1.41-1.65-2.85-3.27l-.16-.17q-4.69-5.23-9.82-10.06l-.34-.32q-1.5-1.4-3-2.76l-.55-.49c-1-.87-2-1.74-3-2.59l-.5-.43q-1.71-1.42-3.45-2.81l-.07-.05q-3.69-2.92-7.54-5.64l-.35-.24c-1.11-.79-2.24-1.55-3.38-2.31l-.77-.51c-1-.67-2-1.33-3.08-2l-.87-.54c-1.06-.66-2.12-1.3-3.2-1.93l-.72-.43q-4-2.32-8.17-4.45l-.22-.11c-1.27-.64-2.54-1.27-3.82-1.88l-1-.47c-1-.48-2.07-1-3.12-1.42l-1.22-.54-3.05-1.28-1.22-.5q-1.65-.66-3.33-1.29l-.93-.35c-2.88-1.07-5.79-2.05-8.74-3l-1.16-.34c-1.07-.33-2.15-.64-3.23-.94l-1.49-.4c-1-.27-2-.53-3-.78L319,76.57c-1-.24-2-.47-3-.69l-1.48-.33c-1.2-.25-2.41-.48-3.62-.71l-.93-.17c-1.52-.28-3.06-.53-4.6-.77l-1.05-.14c-1.18-.18-2.37-.34-3.56-.49l-1.63-.18c-1-.12-2-.22-3.05-.32l-1.78-.16c-1-.08-2-.16-3-.22l-1.77-.12c-1.07-.06-2.15-.1-3.22-.14l-1.53-.06c-1.59,0-3.18-.07-4.77-.07-1.4,0-2.8,0-4.2,0l-1.38,0c-.93,0-1.87.06-2.8.11l-1.64.1c-.84,0-1.67.09-2.5.15l-1.76.15c-.79.07-1.58.13-2.36.21l-1.81.19-2.29.26-1.82.24-2.24.32-1.83.28-2.21.36-1.83.33-2.17.42-1.82.37-2.16.47-1.8.41-2.14.52c-.6.15-1.19.29-1.78.45l-2.14.58c-.58.16-1.16.31-1.74.48l-2.16.64-1.68.51-2.24.73c-.52.17-1.05.33-1.56.51l-2.59.91c-.39.14-.78.27-1.17.42-1.23.45-2.44.91-3.66,1.39-.52.2-1,.42-1.55.63-.7.28-1.41.56-2.11.86l-1.71.74c-.64.28-1.28.55-1.91.84s-1.18.54-1.76.81l-1.82.84-1.78.88-1.74.86-1.79.93c-.57.29-1.13.59-1.69.89l-1.8,1-1.63.91c-.6.34-1.2.68-1.79,1s-1.06.62-1.58.94l-1.79,1.08-1.53,1c-.6.37-1.2.75-1.79,1.14l-1.47,1-1.8,1.21-1.39,1-1.82,1.28-1.28.94c-.63.45-1.25.91-1.87,1.38-.38.28-.74.56-1.11.85-.67.51-1.34,1-2,1.53l-.66.53q-4,3.17-7.73,6.55l-.32.28-2.09,1.94-.75.7c-.65.61-1.29,1.23-1.93,1.86l-.85.83q-.93.93-1.83,1.86l-.88.9c-.6.62-1.19,1.25-1.77,1.87l-.88,1c-.58.63-1.16,1.26-1.73,1.9l-.85,1c-.57.65-1.13,1.3-1.69,2l-.81,1c-.57.67-1.12,1.34-1.67,2l-.76.95c-.56.69-1.11,1.39-1.66,2.09l-.69.9c-.56.73-1.11,1.47-1.66,2.21-.2.27-.39.54-.59.8-.57.78-1.13,1.57-1.69,2.36-.15.21-.3.42-.44.64-.6.85-1.19,1.71-1.77,2.57l-.2.31a166.43,166.43,0,0,0-11.07,19.25l-.12.25c-.49,1-1,2-1.43,3l-.24.53c-.45,1-.88,1.93-1.3,2.9-.1.23-.2.45-.29.67-.41,1-.81,1.91-1.2,2.87l-.3.73c-.39,1-.76,1.91-1.13,2.87-.1.25-.19.51-.29.77-.36,1-.72,1.92-1.06,2.89l-.27.77c-.34,1-.68,2-1,2.95l-.24.71c-.33,1-.65,2-1,3.05l-.18.61q-.48,1.59-.93,3.21c0,.13-.07.26-.1.39A167.13,167.13,0,0,0,113,222h58a8,8,0,0,1,0,16H112c0,.67,0,1.33,0,2,0,1.85,0,3.69.1,5.52l.06,1.49c.06,1.55.14,3.08.25,4.61,0,.32,0,.63.06.95.13,1.8.3,3.59.49,5.37,0,.44.1.88.15,1.32.16,1.45.35,2.9.55,4.34.06.42.11.84.17,1.26.27,1.77.55,3.53.87,5.27l.18.93c.27,1.48.57,3,.89,4.43.1.45.19.9.29,1.35.39,1.74.8,3.48,1.25,5.21h0c.44,1.72.92,3.42,1.41,5.12.13.43.26.85.38,1.27.45,1.5.92,3,1.41,4.46l.21.65c.56,1.68,1.16,3.35,1.78,5,.13.35.26.7.4,1.05.53,1.4,1.07,2.79,1.64,4.16.13.32.25.63.38.94q1,2.46,2.13,4.88l.3.63c.65,1.43,1.33,2.84,2,4.24l.49,1c1.6,3.18,3.31,6.31,5.1,9.37.17.3.35.59.52.88.88,1.48,1.77,2.94,2.69,4.38l.08.14c1,1.53,2,3,3,4.54l.46.66q1.38,2,2.83,4l.35.48c1.09,1.48,2.2,2.93,3.34,4.37l.2.25c1.06,1.33,2.15,2.65,3.25,3.95l.47.55q3.54,4.15,7.34,8.07l.47.48q3.85,3.93,7.95,7.61l.35.31q2,1.79,4.06,3.5l.13.12q2.21,1.83,4.45,3.58h0c1.46,1.13,2.93,2.23,4.42,3.32l.33.24q4.53,3.27,9.27,6.24l.39.25q4.77,3,9.74,5.62l.3.16c1.65.87,3.32,1.73,5,2.55H235.5a24.5,24.5,0,0,0,0-49H203.18a24.5,24.5,0,0,1-4.63-48.5h159.6a24.34,24.34,0,0,0,0-48.67h-4.62a23.11,23.11,0,0,1-23.07-23.14v-1.52c.8-12.29,11.52-21.58,23.8-21.58h88.6a167.17,167.17,0,0,0-21.09-48.8,23.12,23.12,0,0,1-7.65-11h0Q412.74,137,411.32,135.23ZM219,199H159a8,8,0,0,1,0-16h60a8,8,0,0,1,0,16Z"/><path class="cls-3" d="M411.32,135.23l-.33-.41c-.86-1.07-1.74-2.14-2.63-3.19l-.37-.44q-1.41-1.65-2.85-3.27l-.16-.17q-4.69-5.23-9.82-10.06l-.34-.32q-1.5-1.4-3-2.76l-.55-.49c-1-.87-2-1.74-3-2.59l-.5-.43q-1.71-1.42-3.45-2.81l-.07-.05q-3.69-2.92-7.54-5.64l-.35-.24c-1.11-.79-2.24-1.55-3.38-2.31l-.77-.51c-1-.67-2-1.33-3.08-2l-.87-.54c-1.06-.66-2.12-1.3-3.2-1.93l-.72-.43q-4-2.32-8.17-4.45l-.22-.11c-1.27-.64-2.54-1.27-3.82-1.88l-1-.47c-1-.48-2.07-1-3.12-1.42l-1.22-.54-3.05-1.28-1.22-.5q-1.65-.66-3.33-1.29l-.93-.35c-2.88-1.07-5.79-2.05-8.74-3l-1.16-.34c-1.07-.33-2.15-.64-3.23-.94l-1.49-.4c-1-.27-2-.53-3-.78L319,76.57c-1-.24-2-.47-3-.69l-1.48-.33c-1.2-.25-2.41-.48-3.62-.71l-.93-.17c-1.52-.28-3.06-.53-4.6-.77l-1.05-.14c-1.18-.18-2.37-.34-3.56-.49l-1.63-.18c-1-.12-2-.22-3.05-.32l-1.78-.16c-1-.08-2-.16-3-.22l-1.77-.12c-1.07-.06-2.15-.1-3.22-.14l-1.53-.06c-1.59,0-3.18-.07-4.77-.07-1.4,0-2.8,0-4.2,0l-1.38,0c-.93,0-1.87.06-2.8.11l-1.64.1c-.84,0-1.67.09-2.5.15l-1.76.15c-.79.07-1.58.13-2.36.21l-1.81.19-2.29.26-1.82.24-2.24.32-1.83.28-2.21.36-1.83.33-2.17.42-1.82.37-2.16.47-1.8.41-2.14.52c-.6.15-1.19.29-1.78.45l-2.14.58c-.58.16-1.16.31-1.74.48l-2.16.64-1.68.51-2.24.73c-.52.17-1.05.33-1.56.51l-2.59.91c-.39.14-.78.27-1.17.42-1.23.45-2.44.91-3.66,1.39-.52.2-1,.42-1.55.63-.7.28-1.41.56-2.11.86l-1.71.74c-.64.28-1.28.55-1.91.84s-1.18.54-1.76.81l-1.82.84-1.78.88-1.74.86-1.79.93c-.57.29-1.13.59-1.69.89l-1.8,1-1.63.91c-.6.34-1.2.68-1.79,1s-1.06.62-1.58.94l-1.79,1.08-1.53,1c-.6.37-1.2.75-1.79,1.14l-1.47,1-1.8,1.21-1.39,1-1.82,1.28-1.28.94c-.63.45-1.25.91-1.87,1.38-.38.28-.74.56-1.11.85-.67.51-1.34,1-2,1.53l-.66.53q-4,3.17-7.73,6.55l-.32.28-2.09,1.94-.75.7c-.65.61-1.29,1.23-1.93,1.86l-.85.83q-.93.93-1.83,1.86l-.88.9c-.6.62-1.19,1.25-1.77,1.87l-.88,1c-.58.63-1.16,1.26-1.73,1.9l-.85,1c-.57.65-1.13,1.3-1.69,2l-.81,1c-.57.67-1.12,1.34-1.67,2l-.76.95c-.56.69-1.11,1.39-1.66,2.09l-.69.9c-.56.73-1.11,1.47-1.66,2.21-.2.27-.39.54-.59.8-.57.78-1.13,1.57-1.69,2.36-.15.21-.3.42-.44.64-.6.85-1.19,1.71-1.77,2.57l-.2.31a166.43,166.43,0,0,0-11.07,19.25l-.12.25c-.49,1-1,2-1.43,3l-.24.53c-.45,1-.88,1.93-1.3,2.9-.1.23-.2.45-.29.67-.41,1-.81,1.91-1.2,2.87l-.3.73c-.39,1-.76,1.91-1.13,2.87-.1.25-.19.51-.29.77-.36,1-.72,1.92-1.06,2.89l-.27.77c-.34,1-.68,2-1,2.95l-.24.71c-.33,1-.65,2-1,3.05l-.18.61q-.48,1.59-.93,3.21c0,.13-.07.26-.1.39A167.13,167.13,0,0,0,113,222h58a8,8,0,0,1,0,16H112c0,.67,0,1.33,0,2,0,1.85,0,3.69.1,5.52l.06,1.49c.06,1.55.14,3.08.25,4.61,0,.32,0,.63.06.95.13,1.8.3,3.59.49,5.37,0,.44.1.88.15,1.32.16,1.45.35,2.9.55,4.34.06.42.11.84.17,1.26.27,1.77.55,3.53.87,5.27l.18.93c.27,1.48.57,3,.89,4.43.1.45.19.9.29,1.35.39,1.74.8,3.48,1.25,5.21h0c.44,1.72.92,3.42,1.41,5.12.13.43.26.85.38,1.27.45,1.5.92,3,1.41,4.46l.21.65c.56,1.68,1.16,3.35,1.78,5,.13.35.26.7.4,1.05.53,1.4,1.07,2.79,1.64,4.16.13.32.25.63.38.94q1,2.46,2.13,4.88l.3.63c.65,1.43,1.33,2.84,2,4.24l.49,1c1.6,3.18,3.31,6.31,5.1,9.37.17.3.35.59.52.88.88,1.48,1.77,2.94,2.69,4.38l.08.14c1,1.53,2,3,3,4.54l.46.66q1.38,2,2.83,4l.35.48c1.09,1.48,2.2,2.93,3.34,4.37l.2.25c1.06,1.33,2.15,2.65,3.25,3.95l.47.55q3.54,4.15,7.34,8.07l.47.48q3.85,3.93,7.95,7.61l.35.31q2,1.79,4.06,3.5l.13.12q2.21,1.83,4.45,3.58h0c1.46,1.13,2.93,2.23,4.42,3.32l.33.24q4.53,3.27,9.27,6.24l.39.25q4.77,3,9.74,5.62l.3.16c1.65.87,3.32,1.73,5,2.55H235.5a24.5,24.5,0,0,0,0-49H203.18a24.5,24.5,0,0,1-4.63-48.5h159.6a24.34,24.34,0,0,0,0-48.67h-4.62a23.11,23.11,0,0,1-23.07-23.14v-1.52c.8-12.29,11.52-21.58,23.8-21.58h88.6a167.17,167.17,0,0,0-21.09-48.8,23.12,23.12,0,0,1-7.65-11h0Q412.74,137,411.32,135.23ZM219,199H159a8,8,0,0,1,0-16h60a8,8,0,0,1,0,16Z"/><path class="cls-2" d="M113,222h-2a8,8,0,0,0,0,16h1q.09-8.1.93-16Z"/><path class="cls-4" d="M113,222h-2a8,8,0,0,0,0,16h1q.09-8.1.93-16Z"/><path class="cls-2" d="M171,238a8,8,0,0,0,0-16H113q-.84,7.89-.93,16h59Z"/><path class="cls-3" d="M171,238a8,8,0,0,0,0-16H113q-.84,7.89-.93,16h59Z"/><path class="cls-4" d="M171,238a8,8,0,0,0,0-16H113q-.84,7.89-.93,16h59Z"/><path class="cls-2" d="M219,183H159a8,8,0,0,0,0,16h60a8,8,0,0,0,0-16Z"/><path class="cls-3" d="M219,183H159a8,8,0,0,0,0,16h60a8,8,0,0,0,0-16Z"/><path class="cls-4" d="M219,183H159a8,8,0,0,0,0,16h60a8,8,0,0,0,0-16Z"/><path class="cls-1" d="M505.67,18.42l-.37,0Z"/><path class="cls-1" d="M413.29,135.37c.09.57.2,1.12.33,1.67C413.49,136.49,413.38,135.94,413.29,135.37Z"/><path class="cls-1" d="M414.12,138.82c-.18-.55-.34-1.11-.47-1.67.13.56.29,1.12.47,1.67Z"/><path class="cls-1" d="M413.09,133.69c.05.55.11,1.1.19,1.65C413.2,134.79,413.14,134.24,413.09,133.69Z"/><path class="cls-1" d="M507.9,18.17l-.34,0Z"/><path class="cls-1" d="M413,131.69c0,.56,0,1.12.06,1.67C413,132.81,413,132.25,413,131.69Z"/><path class="cls-1" d="M515.76,15.61h0Z"/><path class="cls-1" d="M517.66,14.53l-.2.12Z"/><path class="cls-1" d="M522.48,10.66l-.08.08Z"/><path class="cls-1" d="M526.27,5.76v0Z"/><path class="cls-1" d="M519.36,13.37l-.09.07Z"/><path class="cls-1" d="M512,17.18l-.32.1Z"/><path class="cls-1" d="M509.82,17.8h0Z"/><path class="cls-1" d="M514,16.43l-.24.1Z"/><path class="cls-2" d="M124,465.5A24.5,24.5,0,0,0,99.5,441H98.18a24.34,24.34,0,0,1-17-7.18c-2.24-2.23-4-5.87-5.26-8.78A24.5,24.5,0,0,1,98.5,391H206.37c-1.68-.82-3.35-1.68-5-2.55l-.3-.16q-5-2.65-9.74-5.62l-.39-.25q-4.74-3-9.27-6.24l-.33-.24c-1.49-1.09-3-2.19-4.42-3.32h0q-2.25-1.75-4.45-3.58l-.13-.12q-2.07-1.71-4.06-3.5l-.35-.31q-4.09-3.67-7.95-7.61l-.47-.48q-3.8-3.92-7.34-8.07l-.47-.55c-1.1-1.3-2.19-2.62-3.25-3.95l-.2-.25c-1.14-1.44-2.25-2.89-3.34-4.37l-.35-.48q-1.45-2-2.83-4l-.46-.66c-1-1.5-2-3-3-4.54l-.08-.14c-.92-1.44-1.81-2.9-2.69-4.38-.17-.29-.35-.58-.52-.88-1.79-3.06-3.5-6.19-5.1-9.37l-.49-1c-.69-1.4-1.37-2.81-2-4.24l-.3-.63q-1.1-2.41-2.13-4.88c-.13-.31-.25-.62-.38-.94-.57-1.37-1.11-2.76-1.64-4.16-.14-.35-.27-.7-.4-1.05-.62-1.66-1.22-3.33-1.78-5l-.21-.65c-.49-1.47-1-3-1.41-4.46-.12-.42-.25-.84-.38-1.27-.49-1.7-1-3.4-1.41-5.12h0c-.45-1.73-.86-3.47-1.25-5.21-.1-.45-.19-.9-.29-1.35-.32-1.47-.62-2.95-.89-4.43l-.18-.93c-.32-1.74-.6-3.5-.87-5.27-.06-.42-.11-.84-.17-1.26-.2-1.44-.39-2.89-.55-4.34,0-.44-.11-.88-.15-1.32-.19-1.78-.36-3.57-.49-5.37,0-.32,0-.63-.06-.95-.11-1.53-.19-3.06-.25-4.61l-.06-1.49c-.06-1.83-.1-3.67-.1-5.52,0-.67,0-1.33,0-2h-1a8,8,0,0,1,0-16h2A167.13,167.13,0,0,1,118,195.36c0-.13.07-.26.1-.39q.45-1.62.93-3.21l.18-.61c.31-1,.63-2,1-3.05l.24-.71c.32-1,.66-2,1-2.95l.27-.77c.34-1,.7-1.93,1.06-2.89.1-.26.19-.52.29-.77.37-1,.74-1.92,1.13-2.87l.3-.73c.39-1,.79-1.92,1.2-2.87.09-.22.19-.44.29-.67.42-1,.85-1.94,1.3-2.9l.24-.53c.47-1,.94-2,1.43-3l.12-.25a166.43,166.43,0,0,1,11.07-19.25l.2-.31c.58-.86,1.17-1.72,1.77-2.57.14-.22.29-.43.44-.64.56-.79,1.12-1.58,1.69-2.36.2-.26.39-.53.59-.8.55-.74,1.1-1.48,1.66-2.21l.69-.9c.55-.7,1.1-1.4,1.66-2.09l.76-.95c.55-.68,1.1-1.35,1.67-2l.81-1c.56-.66,1.12-1.31,1.69-2l.85-1c.57-.64,1.15-1.27,1.73-1.9l.88-1c.58-.62,1.17-1.25,1.77-1.87l.88-.9q.9-.93,1.83-1.86l.85-.83c.64-.63,1.28-1.25,1.93-1.86l.75-.7,2.09-1.94.32-.28q3.76-3.39,7.73-6.55L176,108c.65-.52,1.32-1,2-1.53.37-.29.73-.57,1.11-.85.62-.47,1.24-.93,1.87-1.38l1.28-.94,1.82-1.28,1.39-1,1.8-1.21,1.47-1c.59-.39,1.19-.77,1.79-1.14l1.53-1,1.79-1.08c.52-.32,1-.63,1.58-.94s1.19-.69,1.79-1l1.63-.91,1.8-1c.56-.3,1.12-.6,1.69-.89l1.79-.93,1.74-.86,1.78-.88,1.82-.84c.58-.27,1.17-.55,1.76-.81s1.27-.56,1.91-.84l1.71-.74c.7-.3,1.41-.58,2.11-.86.52-.21,1-.43,1.55-.63,1.22-.48,2.43-.94,3.66-1.39.38-.15.78-.28,1.17-.42l2.59-.91c.51-.18,1-.34,1.56-.51l2.24-.73,1.68-.51,2.16-.64c.58-.17,1.16-.32,1.74-.48l2.14-.58c.59-.16,1.18-.3,1.78-.45l2.14-.52,1.8-.41,2.16-.47,1.82-.37,2.17-.42,1.83-.33,2.21-.36,1.83-.28,2.24-.32,1.82-.24,2.29-.26,1.81-.19c.78-.08,1.57-.14,2.36-.21l1.76-.15c.83-.06,1.66-.11,2.5-.15l1.64-.1c.93,0,1.87-.08,2.8-.11l1.38,0c1.4,0,2.8,0,4.2,0,1.59,0,3.18,0,4.77.07l1.53.06c1.07,0,2.15.08,3.22.14l1.77.12c1,.06,2,.14,3,.22l1.78.16c1,.09,2,.2,3.05.32l1.63.18c1.19.15,2.38.31,3.56.49l1.05.14c1.54.24,3.08.49,4.6.77l.93.17c1.21.23,2.42.46,3.62.71l1.48.33c1,.22,2,.45,3,.69l1.58.38c1,.25,2,.51,3,.78l1.49.4c1.08.3,2.16.61,3.23.94l1.16.34c2.95.91,5.86,1.89,8.74,3l.93.35q1.68.63,3.33,1.29l1.22.5,3.05,1.28,1.22.54c1,.46,2.09.94,3.12,1.42l1,.47c1.28.61,2.55,1.24,3.82,1.88l.22.11q4.16,2.12,8.17,4.45l.72.43c1.08.63,2.14,1.27,3.2,1.93l.87.54c1,.65,2.06,1.31,3.08,2l.77.51c1.14.76,2.27,1.52,3.38,2.31l.35.24q3.85,2.72,7.54,5.64l.07.05q1.74,1.38,3.45,2.81l.5.43c1,.85,2,1.72,3,2.59l.55.49q1.53,1.36,3,2.76l.34.32q5.11,4.82,9.82,10.06l.16.17q1.44,1.62,2.85,3.27l.37.44c.89,1.05,1.77,2.11,2.63,3.19l.33.41q1.43,1.77,2.8,3.59h0c-.18-.55-.34-1.11-.47-1.67l0-.11c-.13-.55-.24-1.1-.33-1.67v0c-.08-.55-.14-1.1-.19-1.65l0-.33c0-.55-.06-1.11-.06-1.67v-1.57c.8-12.29,11.52-21.58,23.8-21.58h22.28a21.9,21.9,0,0,0,0-43.8h-40A23.1,23.1,0,0,1,396,41.61h0V40.07c.8-12.29,11.52-21.58,23.8-21.58h83.5c.67,0,1.34,0,2,0l.37,0c.64,0,1.27-.11,1.89-.2l.34,0c.63-.1,1.26-.22,1.87-.36h.05c.63-.15,1.25-.32,1.86-.52l.32-.1c.6-.19,1.18-.41,1.76-.65l.24-.1c.59-.25,1.18-.52,1.75-.81h0c.58-.29,1.14-.62,1.7-1l.2-.12c.55-.35,1.09-.71,1.61-1.09l.09-.07a25.25,25.25,0,0,0,3-2.63l.08-.08a26.42,26.42,0,0,0,3.78-4.88v0A26.42,26.42,0,0,0,528.84,0H0V490H99.5A24.5,24.5,0,0,0,124,465.5Z"/><path class="cls-2" d="M376.68,102.6q3.85,2.72,7.54,5.64Q380.53,105.32,376.68,102.6Z"/><path class="cls-3" d="M376.68,102.6q3.85,2.72,7.54,5.64Q380.53,105.32,376.68,102.6Z"/><path class="cls-2" d="M144.55,339.38q-1.45-2-2.83-4Q143.1,337.42,144.55,339.38Z"/><path class="cls-3" d="M144.55,339.38q-1.45-2-2.83-4Q143.1,337.42,144.55,339.38Z"/><path class="cls-2" d="M253.37,74.11l1.83-.28Z"/><path class="cls-3" d="M253.37,74.11l1.83-.28Z"/><path class="cls-2" d="M141.26,334.75c-1-1.5-2-3-3-4.54C139.23,331.74,140.24,333.25,141.26,334.75Z"/><path class="cls-3" d="M141.26,334.75c-1-1.5-2-3-3-4.54C139.23,331.74,140.24,333.25,141.26,334.75Z"/><path class="cls-2" d="M384.29,108.29q1.74,1.38,3.45,2.81Q386,109.68,384.29,108.29Z"/><path class="cls-3" d="M384.29,108.29q1.74,1.38,3.45,2.81Q386,109.68,384.29,108.29Z"/><path class="cls-2" d="M151.69,348.43c-1.1-1.3-2.19-2.62-3.25-3.95C149.5,345.81,150.59,347.13,151.69,348.43Z"/><path class="cls-3" d="M151.69,348.43c-1.1-1.3-2.19-2.62-3.25-3.95C149.5,345.81,150.59,347.13,151.69,348.43Z"/><path class="cls-2" d="M159.5,357.05q-3.8-3.92-7.34-8.07Q155.7,353.14,159.5,357.05Z"/><path class="cls-3" d="M159.5,357.05q-3.8-3.92-7.34-8.07Q155.7,353.14,159.5,357.05Z"/><path class="cls-2" d="M148.24,344.23c-1.14-1.44-2.25-2.89-3.34-4.37C146,341.34,147.1,342.79,148.24,344.23Z"/><path class="cls-3" d="M148.24,344.23c-1.14-1.44-2.25-2.89-3.34-4.37C146,341.34,147.1,342.79,148.24,344.23Z"/><path class="cls-2" d="M222.18,82.22c.39-.15.78-.28,1.17-.42C223,81.94,222.56,82.07,222.18,82.22Z"/><path class="cls-3" d="M222.18,82.22c.39-.15.78-.28,1.17-.42C223,81.94,222.56,82.07,222.18,82.22Z"/><path class="cls-2" d="M365,95.09c1.08.63,2.14,1.27,3.2,1.93C367.17,96.36,366.11,95.72,365,95.09Z"/><path class="cls-3" d="M365,95.09c1.08.63,2.14,1.27,3.2,1.93C367.17,96.36,366.11,95.72,365,95.09Z"/><path class="cls-2" d="M369.1,97.56c1,.65,2.06,1.31,3.08,2C371.16,98.87,370.14,98.21,369.1,97.56Z"/><path class="cls-3" d="M369.1,97.56c1,.65,2.06,1.31,3.08,2C371.16,98.87,370.14,98.21,369.1,97.56Z"/><path class="cls-2" d="M124.54,303.77c-.57-1.37-1.11-2.76-1.64-4.16C123.43,301,124,302.4,124.54,303.77Z"/><path class="cls-3" d="M124.54,303.77c-.57-1.37-1.11-2.76-1.64-4.16C123.43,301,124,302.4,124.54,303.77Z"/><path class="cls-2" d="M127.05,309.59q-1.1-2.41-2.13-4.88Q126,307.17,127.05,309.59Z"/><path class="cls-3" d="M127.05,309.59q-1.1-2.41-2.13-4.88Q126,307.17,127.05,309.59Z"/><path class="cls-2" d="M138.17,330.07c-.92-1.44-1.81-2.9-2.69-4.38C136.36,327.17,137.25,328.63,138.17,330.07Z"/><path class="cls-3" d="M138.17,330.07c-.92-1.44-1.81-2.9-2.69-4.38C136.36,327.17,137.25,328.63,138.17,330.07Z"/><path class="cls-2" d="M373,100.05c1.14.76,2.27,1.52,3.38,2.31C375.22,101.57,374.09,100.81,373,100.05Z"/><path class="cls-3" d="M373,100.05c1.14.76,2.27,1.52,3.38,2.31C375.22,101.57,374.09,100.81,373,100.05Z"/><path class="cls-2" d="M135,324.81c-1.79-3.06-3.5-6.19-5.1-9.37C131.46,318.62,133.17,321.75,135,324.81Z"/><path class="cls-3" d="M135,324.81c-1.79-3.06-3.5-6.19-5.1-9.37C131.46,318.62,133.17,321.75,135,324.81Z"/><path class="cls-2" d="M217,84.24c.52-.21,1-.43,1.55-.63C218,83.81,217.49,84,217,84.24Z"/><path class="cls-3" d="M217,84.24c.52-.21,1-.43,1.55-.63C218,83.81,217.49,84,217,84.24Z"/><path class="cls-2" d="M129.37,314.46c-.69-1.4-1.37-2.81-2-4.24C128,311.65,128.68,313.06,129.37,314.46Z"/><path class="cls-3" d="M129.37,314.46c-.69-1.4-1.37-2.81-2-4.24C128,311.65,128.68,313.06,129.37,314.46Z"/><path class="cls-2" d="M237.46,77.44c.59-.16,1.18-.3,1.78-.45C238.64,77.14,238.05,77.28,237.46,77.44Z"/><path class="cls-3" d="M237.46,77.44c.59-.16,1.18-.3,1.78-.45C238.64,77.14,238.05,77.28,237.46,77.44Z"/><path class="cls-2" d="M411.32,135.23q1.43,1.77,2.8,3.59Q412.74,137,411.32,135.23Z"/><path class="cls-3" d="M411.32,135.23q1.43,1.77,2.8,3.59Q412.74,137,411.32,135.23Z"/><path class="cls-2" d="M408.36,131.63c.89,1.05,1.77,2.12,2.63,3.19C410.13,133.74,409.25,132.68,408.36,131.63Z"/><path class="cls-3" d="M408.36,131.63c.89,1.05,1.77,2.12,2.63,3.19C410.13,133.74,409.25,132.68,408.36,131.63Z"/><path class="cls-2" d="M233.58,78.5c.58-.17,1.16-.32,1.74-.48C234.74,78.18,234.16,78.33,233.58,78.5Z"/><path class="cls-3" d="M233.58,78.5c.58-.17,1.16-.32,1.74-.48C234.74,78.18,234.16,78.33,233.58,78.5Z"/><path class="cls-2" d="M405.14,127.92q1.44,1.62,2.85,3.27Q406.58,129.54,405.14,127.92Z"/><path class="cls-3" d="M405.14,127.92q1.44,1.62,2.85,3.27Q406.58,129.54,405.14,127.92Z"/><path class="cls-2" d="M388.24,111.53c1,.85,2,1.72,3,2.59C390.25,113.25,389.25,112.38,388.24,111.53Z"/><path class="cls-3" d="M388.24,111.53c1,.85,2,1.72,3,2.59C390.25,113.25,389.25,112.38,388.24,111.53Z"/><path class="cls-2" d="M201.07,388.33q-5-2.65-9.74-5.62Q196.1,385.68,201.07,388.33Z"/><path class="cls-3" d="M201.07,388.33q-5-2.65-9.74-5.62Q196.1,385.68,201.07,388.33Z"/><path class="cls-2" d="M405,127.75q-4.69-5.23-9.82-10.06Q400.28,122.51,405,127.75Z"/><path class="cls-3" d="M405,127.75q-4.69-5.23-9.82-10.06Q400.28,122.51,405,127.75Z"/><path class="cls-2" d="M122.5,298.56c-.62-1.66-1.22-3.33-1.78-5C121.28,295.23,121.88,296.9,122.5,298.56Z"/><path class="cls-3" d="M122.5,298.56c-.62-1.66-1.22-3.33-1.78-5C121.28,295.23,121.88,296.9,122.5,298.56Z"/><path class="cls-2" d="M112,238c0,.67,0,1.33,0,2,0-.67,0-1.33,0-2Z"/><path class="cls-3" d="M112,238c0,.67,0,1.33,0,2,0-.67,0-1.33,0-2Z"/><path class="cls-2" d="M245.34,75.59l1.82-.37Z"/><path class="cls-3" d="M245.34,75.59l1.82-.37Z"/><path class="cls-2" d="M206.37,391c-1.68-.82-3.35-1.68-5-2.55C203,389.36,204.69,390.22,206.37,391Z"/><path class="cls-3" d="M206.37,391c-1.68-.82-3.35-1.68-5-2.55C203,389.36,204.69,390.22,206.37,391Z"/><path class="cls-2" d="M225.94,80.89c.51-.18,1-.34,1.56-.51C227,80.55,226.45,80.71,225.94,80.89Z"/><path class="cls-3" d="M225.94,80.89c.51-.18,1-.34,1.56-.51C227,80.55,226.45,80.71,225.94,80.89Z"/><path class="cls-2" d="M172.33,369q-2.07-1.71-4.06-3.5Q170.27,367.24,172.33,369Z"/><path class="cls-3" d="M172.33,369q-2.07-1.71-4.06-3.5Q170.27,367.24,172.33,369Z"/><path class="cls-2" d="M391.79,114.61q1.53,1.36,3,2.76Q393.32,116,391.79,114.61Z"/><path class="cls-3" d="M391.79,114.61q1.53,1.36,3,2.76Q393.32,116,391.79,114.61Z"/><path class="cls-2" d="M190.94,382.46q-4.74-3-9.27-6.24Q186.2,379.49,190.94,382.46Z"/><path class="cls-3" d="M190.94,382.46q-4.74-3-9.27-6.24Q186.2,379.49,190.94,382.46Z"/><path class="cls-2" d="M167.92,365.14q-4.09-3.67-7.95-7.61Q163.82,361.46,167.92,365.14Z"/><path class="cls-3" d="M167.92,365.14q-4.09-3.67-7.95-7.61Q163.82,361.46,167.92,365.14Z"/><path class="cls-2" d="M176.91,372.65q-2.25-1.75-4.45-3.58Q174.67,370.9,176.91,372.65Z"/><path class="cls-3" d="M176.91,372.65q-2.25-1.75-4.45-3.58Q174.67,370.9,176.91,372.65Z"/><path class="cls-2" d="M181.34,376c-1.49-1.09-3-2.19-4.42-3.32C178.38,373.79,179.85,374.89,181.34,376Z"/><path class="cls-3" d="M181.34,376c-1.49-1.09-3-2.19-4.42-3.32C178.38,373.79,179.85,374.89,181.34,376Z"/><path class="cls-2" d="M229.74,79.65l1.68-.51Z"/><path class="cls-3" d="M229.74,79.65l1.68-.51Z"/><path class="cls-2" d="M249.33,74.8l1.83-.33Z"/><path class="cls-3" d="M249.33,74.8l1.83-.33Z"/><path class="cls-2" d="M121.69,183.67c.34-1,.7-1.93,1.06-2.89C122.39,181.74,122,182.7,121.69,183.67Z"/><path class="cls-3" d="M121.69,183.67c.34-1,.7-1.93,1.06-2.89C122.39,181.74,122,182.7,121.69,183.67Z"/><path class="cls-2" d="M147.16,137.15c.55-.7,1.1-1.4,1.66-2.09C148.26,135.75,147.71,136.45,147.16,137.15Z"/><path class="cls-3" d="M147.16,137.15c.55-.7,1.1-1.4,1.66-2.09C148.26,135.75,147.71,136.45,147.16,137.15Z"/><path class="cls-2" d="M305.35,73.9c1.54.24,3.08.49,4.6.77C308.43,74.39,306.89,74.14,305.35,73.9Z"/><path class="cls-3" d="M305.35,73.9c1.54.24,3.08.49,4.6.77C308.43,74.39,306.89,74.14,305.35,73.9Z"/><path class="cls-2" d="M149.58,134.11c.55-.68,1.1-1.35,1.67-2C150.68,132.76,150.13,133.43,149.58,134.11Z"/><path class="cls-3" d="M149.58,134.11c.55-.68,1.1-1.35,1.67-2C150.68,132.76,150.13,133.43,149.58,134.11Z"/><path class="cls-2" d="M144.81,140.26c.55-.74,1.1-1.48,1.66-2.21C145.91,138.78,145.36,139.52,144.81,140.26Z"/><path class="cls-3" d="M144.81,140.26c.55-.74,1.1-1.48,1.66-2.21C145.91,138.78,145.36,139.52,144.81,140.26Z"/><path class="cls-2" d="M195.44,94.81c.59-.35,1.19-.69,1.79-1C196.63,94.12,196,94.46,195.44,94.81Z"/><path class="cls-3" d="M195.44,94.81c.59-.35,1.19-.69,1.79-1C196.63,94.12,196,94.46,195.44,94.81Z"/><path class="cls-2" d="M192.07,96.83l1.79-1.08Z"/><path class="cls-3" d="M192.07,96.83l1.79-1.08Z"/><path class="cls-2" d="M300.74,73.27c1.19.15,2.38.31,3.56.49C303.12,73.58,301.93,73.42,300.74,73.27Z"/><path class="cls-3" d="M300.74,73.27c1.19.15,2.38.31,3.56.49C303.12,73.58,301.93,73.42,300.74,73.27Z"/><path class="cls-2" d="M152.06,131.13c.56-.66,1.12-1.31,1.69-2C153.18,129.82,152.62,130.47,152.06,131.13Z"/><path class="cls-3" d="M152.06,131.13c.56-.66,1.12-1.31,1.69-2C153.18,129.82,152.62,130.47,152.06,131.13Z"/><path class="cls-2" d="M265.72,72.61l1.76-.15Z"/><path class="cls-3" d="M265.72,72.61l1.76-.15Z"/><path class="cls-2" d="M129.05,166.19a166.43,166.43,0,0,1,11.07-19.25A166.43,166.43,0,0,0,129.05,166.19Z"/><path class="cls-3" d="M129.05,166.19a166.43,166.43,0,0,1,11.07-19.25A166.43,166.43,0,0,0,129.05,166.19Z"/><path class="cls-2" d="M316,75.88c1,.22,2,.45,3,.69C318,76.33,317,76.1,316,75.88Z"/><path class="cls-3" d="M316,75.88c1,.22,2,.45,3,.69C318,76.33,317,76.1,316,75.88Z"/><path class="cls-2" d="M127.5,169.44c.47-1,.94-2,1.43-3C128.44,167.43,128,168.44,127.5,169.44Z"/><path class="cls-3" d="M127.5,169.44c.47-1,.94-2,1.43-3C128.44,167.43,128,168.44,127.5,169.44Z"/><path class="cls-2" d="M213.15,85.84l1.71-.74Z"/><path class="cls-3" d="M213.15,85.84l1.71-.74Z"/><path class="cls-2" d="M310.88,74.84c1.21.23,2.42.46,3.62.71C313.3,75.3,312.09,75.07,310.88,74.84Z"/><path class="cls-3" d="M310.88,74.84c1.21.23,2.42.46,3.62.71C313.3,75.3,312.09,75.07,310.88,74.84Z"/><path class="cls-2" d="M154.6,128.21c.57-.64,1.15-1.27,1.73-1.9C155.75,126.94,155.17,127.57,154.6,128.21Z"/><path class="cls-3" d="M154.6,128.21c.57-.64,1.15-1.27,1.73-1.9C155.75,126.94,155.17,127.57,154.6,128.21Z"/><path class="cls-2" d="M142.53,143.42c.56-.79,1.12-1.58,1.69-2.36C143.65,141.84,143.09,142.63,142.53,143.42Z"/><path class="cls-3" d="M142.53,143.42c.56-.79,1.12-1.58,1.69-2.36C143.65,141.84,143.09,142.63,142.53,143.42Z"/><path class="cls-2" d="M182.27,103.34l1.82-1.28Z"/><path class="cls-3" d="M182.27,103.34l1.82-1.28Z"/><path class="cls-2" d="M176,108c.65-.52,1.32-1,2-1.53C177.34,107,176.67,107.52,176,108Z"/><path class="cls-3" d="M176,108c.65-.52,1.32-1,2-1.53C177.34,107,176.67,107.52,176,108Z"/><path class="cls-2" d="M167.63,115.12q3.76-3.39,7.73-6.55Q171.4,111.74,167.63,115.12Z"/><path class="cls-3" d="M167.63,115.12q3.76-3.39,7.73-6.55Q171.4,111.74,167.63,115.12Z"/><path class="cls-2" d="M286.3,72.13c1.07,0,2.15.08,3.22.14C288.45,72.21,287.37,72.17,286.3,72.13Z"/><path class="cls-3" d="M286.3,72.13c1.07,0,2.15.08,3.22.14C288.45,72.21,287.37,72.17,286.3,72.13Z"/><path class="cls-2" d="M280,72c1.59,0,3.18,0,4.77.07C283.18,72,281.59,72,280,72Z"/><path class="cls-3" d="M280,72c1.59,0,3.18,0,4.77.07C283.18,72,281.59,72,280,72Z"/><path class="cls-2" d="M198.86,92.87l1.8-1Z"/><path class="cls-3" d="M198.86,92.87l1.8-1Z"/><path class="cls-2" d="M179.12,105.66c.62-.47,1.24-.93,1.87-1.38C180.36,104.73,179.74,105.19,179.12,105.66Z"/><path class="cls-3" d="M179.12,105.66c.62-.47,1.24-.93,1.87-1.38C180.36,104.73,179.74,105.19,179.12,105.66Z"/><path class="cls-2" d="M185.48,101.1l1.8-1.21Z"/><path class="cls-3" d="M185.48,101.1l1.8-1.21Z"/><path class="cls-2" d="M296.06,72.77c1,.1,2,.2,3.05.32C298.1,73,297.08,72.86,296.06,72.77Z"/><path class="cls-3" d="M296.06,72.77c1,.1,2,.2,3.05.32C298.1,73,297.08,72.86,296.06,72.77Z"/><path class="cls-2" d="M270,72.31l1.64-.1Z"/><path class="cls-3" d="M270,72.31l1.64-.1Z"/><path class="cls-2" d="M157.21,125.36c.58-.62,1.17-1.25,1.77-1.87C158.38,124.11,157.79,124.74,157.21,125.36Z"/><path class="cls-3" d="M157.21,125.36c.58-.62,1.17-1.25,1.77-1.87C158.38,124.11,157.79,124.74,157.21,125.36Z"/><path class="cls-2" d="M159.86,122.59q.9-.93,1.83-1.86Q160.76,121.66,159.86,122.59Z"/><path class="cls-3" d="M159.86,122.59q.9-.93,1.83-1.86Q160.76,121.66,159.86,122.59Z"/><path class="cls-2" d="M165.22,117.34l2.09-1.94Z"/><path class="cls-3" d="M165.22,117.34l2.09-1.94Z"/><path class="cls-2" d="M188.75,98.93c.59-.39,1.19-.77,1.79-1.14C189.94,98.16,189.34,98.54,188.75,98.93Z"/><path class="cls-3" d="M188.75,98.93c.59-.39,1.19-.77,1.79-1.14C189.94,98.16,189.34,98.54,188.75,98.93Z"/><path class="cls-2" d="M291.29,72.39c1,.06,2,.14,3,.22C293.29,72.53,292.29,72.45,291.29,72.39Z"/><path class="cls-3" d="M291.29,72.39c1,.06,2,.14,3,.22C293.29,72.53,292.29,72.45,291.29,72.39Z"/><path class="cls-2" d="M162.54,119.9c.64-.63,1.28-1.25,1.93-1.86C163.82,118.65,163.18,119.27,162.54,119.9Z"/><path class="cls-3" d="M162.54,119.9c.64-.63,1.28-1.25,1.93-1.86C163.82,118.65,163.18,119.27,162.54,119.9Z"/><path class="cls-2" d="M140.32,146.63c.58-.86,1.17-1.72,1.77-2.57C141.49,144.91,140.9,145.77,140.32,146.63Z"/><path class="cls-3" d="M140.32,146.63c.58-.86,1.17-1.72,1.77-2.57C141.49,144.91,140.9,145.77,140.32,146.63Z"/><path class="cls-2" d="M348,86.33c1,.46,2.09.94,3.12,1.42C350.06,87.27,349,86.79,348,86.33Z"/><path class="cls-3" d="M348,86.33c1,.46,2.09.94,3.12,1.42C350.06,87.27,349,86.79,348,86.33Z"/><path class="cls-2" d="M205.88,89.21l1.78-.88Z"/><path class="cls-3" d="M205.88,89.21l1.78-.88Z"/><path class="cls-2" d="M113.66,263.6c-.2-1.44-.39-2.89-.55-4.34C113.27,260.71,113.46,262.16,113.66,263.6Z"/><path class="cls-3" d="M113.66,263.6c-.2-1.44-.39-2.89-.55-4.34C113.27,260.71,113.46,262.16,113.66,263.6Z"/><path class="cls-2" d="M114.7,270.13c-.32-1.74-.6-3.5-.87-5.27C114.1,266.63,114.38,268.39,114.7,270.13Z"/><path class="cls-3" d="M114.7,270.13c-.32-1.74-.6-3.5-.87-5.27C114.1,266.63,114.38,268.39,114.7,270.13Z"/><path class="cls-2" d="M113,257.94c-.19-1.78-.36-3.57-.49-5.37C112.6,254.37,112.77,256.16,113,257.94Z"/><path class="cls-3" d="M113,257.94c-.19-1.78-.36-3.57-.49-5.37C112.6,254.37,112.77,256.16,113,257.94Z"/><path class="cls-2" d="M112.41,251.62c-.11-1.53-.19-3.06-.25-4.61C112.22,248.56,112.3,250.09,112.41,251.62Z"/><path class="cls-3" d="M112.41,251.62c-.11-1.53-.19-3.06-.25-4.61C112.22,248.56,112.3,250.09,112.41,251.62Z"/><path class="cls-2" d="M343.7,84.51l3.05,1.28Z"/><path class="cls-3" d="M343.7,84.51l3.05,1.28Z"/><path class="cls-2" d="M209.48,87.49c.58-.27,1.17-.55,1.76-.81C210.65,86.94,210.06,87.22,209.48,87.49Z"/><path class="cls-3" d="M209.48,87.49c.58-.27,1.17-.55,1.76-.81C210.65,86.94,210.06,87.22,209.48,87.49Z"/><path class="cls-2" d="M356.14,90.21q4.16,2.12,8.17,4.45Q360.29,92.34,356.14,90.21Z"/><path class="cls-3" d="M356.14,90.21q4.16,2.12,8.17,4.45Q360.29,92.34,356.14,90.21Z"/><path class="cls-2" d="M118.72,287.17c-.49-1.7-1-3.4-1.41-5.12C117.75,283.77,118.23,285.47,118.72,287.17Z"/><path class="cls-3" d="M118.72,287.17c-.49-1.7-1-3.4-1.41-5.12C117.75,283.77,118.23,285.47,118.72,287.17Z"/><path class="cls-2" d="M120.51,292.9c-.49-1.47-1-3-1.41-4.46C119.55,289.94,120,291.43,120.51,292.9Z"/><path class="cls-3" d="M120.51,292.9c-.49-1.47-1-3-1.41-4.46C119.55,289.94,120,291.43,120.51,292.9Z"/><path class="cls-2" d="M257.44,73.51l1.82-.24Z"/><path class="cls-3" d="M257.44,73.51l1.82-.24Z"/><path class="cls-2" d="M352.1,88.22c1.28.61,2.55,1.24,3.82,1.88C354.65,89.46,353.38,88.83,352.1,88.22Z"/><path class="cls-3" d="M352.1,88.22c1.28.61,2.55,1.24,3.82,1.88C354.65,89.46,353.38,88.83,352.1,88.22Z"/><path class="cls-2" d="M126,172.87c.42-1,.85-1.94,1.3-2.9C126.81,170.93,126.38,171.9,126,172.87Z"/><path class="cls-3" d="M126,172.87c.42-1,.85-1.94,1.3-2.9C126.81,170.93,126.38,171.9,126,172.87Z"/><path class="cls-2" d="M115.77,275.49c-.32-1.47-.62-2.95-.89-4.43C115.15,272.54,115.45,274,115.77,275.49Z"/><path class="cls-3" d="M115.77,275.49c-.32-1.47-.62-2.95-.89-4.43C115.15,272.54,115.45,274,115.77,275.49Z"/><path class="cls-2" d="M117.31,282.05c-.45-1.73-.86-3.47-1.25-5.21C116.45,278.58,116.86,280.32,117.31,282.05Z"/><path class="cls-3" d="M117.31,282.05c-.45-1.73-.86-3.47-1.25-5.21C116.45,278.58,116.86,280.32,117.31,282.05Z"/><path class="cls-2" d="M325.09,78.13c1.08.3,2.16.61,3.23.94C327.25,78.74,326.17,78.43,325.09,78.13Z"/><path class="cls-3" d="M325.09,78.13c1.08.3,2.16.61,3.23.94C327.25,78.74,326.17,78.43,325.09,78.13Z"/><path class="cls-2" d="M202.35,91l1.79-.93Z"/><path class="cls-3" d="M202.35,91l1.79-.93Z"/><path class="cls-2" d="M123,180c.37-1,.74-1.92,1.13-2.87C123.78,178.09,123.41,179.05,123,180Z"/><path class="cls-3" d="M123,180c.37-1,.74-1.92,1.13-2.87C123.78,178.09,123.41,179.05,123,180Z"/><path class="cls-2" d="M274.42,72.1l1.38,0Z"/><path class="cls-3" d="M274.42,72.1l1.38,0Z"/><path class="cls-2" d="M320.61,77c1,.25,2,.51,3,.78C322.61,77.46,321.61,77.2,320.61,77Z"/><path class="cls-3" d="M320.61,77c1,.25,2,.51,3,.78C322.61,77.46,321.61,77.2,320.61,77Z"/><path class="cls-2" d="M241.38,76.47l1.8-.41Z"/><path class="cls-3" d="M241.38,76.47l1.8-.41Z"/><path class="cls-2" d="M124.47,176.41c.39-1,.79-1.92,1.2-2.87C125.26,174.49,124.86,175.45,124.47,176.41Z"/><path class="cls-3" d="M124.47,176.41c.39-1,.79-1.92,1.2-2.87C125.26,174.49,124.86,175.45,124.47,176.41Z"/><path class="cls-2" d="M261.55,73l1.81-.19Z"/><path class="cls-3" d="M261.55,73l1.81-.19Z"/><path class="cls-2" d="M118.11,195q.45-1.62.93-3.21Q118.56,193.35,118.11,195Z"/><path class="cls-3" d="M118.11,195q.45-1.62.93-3.21Q118.56,193.35,118.11,195Z"/><path class="cls-2" d="M339.15,82.72q1.68.63,3.33,1.29Q340.83,83.35,339.15,82.72Z"/><path class="cls-3" d="M339.15,82.72q1.68.63,3.33,1.29Q340.83,83.35,339.15,82.72Z"/><path class="cls-2" d="M113,222A167.13,167.13,0,0,1,118,195.36,167.13,167.13,0,0,0,113,222Z"/><path class="cls-3" d="M113,222A167.13,167.13,0,0,1,118,195.36,167.13,167.13,0,0,0,113,222Z"/><path class="cls-2" d="M112.1,245.52c-.06-1.83-.1-3.67-.1-5.52C112,241.85,112,243.69,112.1,245.52Z"/><path class="cls-3" d="M112.1,245.52c-.06-1.83-.1-3.67-.1-5.52C112,241.85,112,243.69,112.1,245.52Z"/><path class="cls-2" d="M329.48,79.41c2.95.91,5.86,1.89,8.74,3C335.34,81.3,332.43,80.32,329.48,79.41Z"/><path class="cls-3" d="M329.48,79.41c2.95.91,5.86,1.89,8.74,3C335.34,81.3,332.43,80.32,329.48,79.41Z"/><path class="cls-2" d="M120.42,187.39c.32-1,.66-2,1-2.95C121.08,185.42,120.74,186.4,120.42,187.39Z"/><path class="cls-3" d="M120.42,187.39c.32-1,.66-2,1-2.95C121.08,185.42,120.74,186.4,120.42,187.39Z"/><path class="cls-2" d="M119.22,191.15c.31-1,.63-2,1-3.05C119.85,189.12,119.53,190.13,119.22,191.15Z"/><path class="cls-3" d="M119.22,191.15c.31-1,.63-2,1-3.05C119.85,189.12,119.53,190.13,119.22,191.15Z"/></g></g></svg>