<?xml version="1.0" encoding="utf-8"?>
<!-- Generator: Adobe Illustrator 23.0.3, SVG Export Plug-In . SVG Version: 6.00 Build 0)  -->
<svg version="1.1" id="レイヤー_1" xmlns="http://www.w3.org/2000/svg" xmlns:xlink="http://www.w3.org/1999/xlink" x="0px"
	 y="0px" viewBox="0 0 742.8 712.4" style="enable-background:new 0 0 742.8 712.4;" xml:space="preserve">
<style type="text/css">
	.st0{fill:#5082F4;}
	.st1{opacity:0.232;fill:#FFFFFF;enable-background:new    ;}
	.st2{opacity:0.501;fill:#FFFFFF;enable-background:new    ;}
</style>
<g transform="translate(3 225.408)">
	<path class="st0" d="M389.2,339h-244v-87H437v38h-47.5c-3.3,0-6.5,0.6-9.5,1.9c-2.9,1.2-5.6,3-7.8,5.3c-2.2,2.2-4,4.9-5.3,7.8
		c-1.3,3-1.9,6.3-1.9,9.5c0,3.3,0.6,6.5,1.9,9.5c1.2,2.9,3,5.6,5.3,7.8c2.2,2.2,4.9,4,7.8,5.3C382.9,338.3,386,339,389.2,339
		L389.2,339z"/>
	<path class="st0" d="M284.2,438h-244v-87H332v38h-47.5c-3.3,0-6.5,0.6-9.5,1.9c-2.9,1.2-5.6,3-7.8,5.3c-2.2,2.2-4,4.9-5.3,7.8
		c-1.3,3-1.9,6.3-1.9,9.5c0,3.3,0.6,6.5,1.9,9.5c1.2,2.9,3,5.6,5.3,7.8c2.2,2.2,4.9,4,7.8,5.3C277.9,437.3,281,438,284.2,438
		L284.2,438z"/>
	<path class="st0" d="M157.5,339h264c13.5,0,24.5,11,24.5,24.5S435,388,421.5,388h-264c-13.5,0-24.5-11-24.5-24.5l0,0
		C133,350,144,339,157.5,339z"/>
	<path class="st0" d="M21.5,438h264c13.5,0,24.5,11,24.5,24.5S299,487,285.5,487h-264C8,487-3,476-3,462.5l0,0
		C-3,449,8,438,21.5,438L21.5,438z"/>
	<path class="st0" d="M358.6,290.5h185.5c13.4-0.1,24.3-11.1,24.2-24.5c-0.1-13.3-10.9-24.1-24.2-24.2h-4.6
		c-12.8,0-23.1-10.4-23.1-23.1c0-0.5,0-1,0.1-1.5c0.8-12.3,11.5-21.6,23.8-21.6h129.1c12.1,0,21.9-9.8,21.9-21.9
		c0-12.1-9.8-21.9-21.9-21.9h-47.3c-12.8,0-23.1-10.4-23.1-23.1c0-0.5,0-1,0.1-1.5c0.8-12.3,11.5-21.6,23.8-21.6h22.3
		c12.1,0,21.9-9.8,21.9-21.9c0-12.1-9.8-21.9-21.9-21.9h-40.1c-12.8,0-23.1-10.4-23.1-23.1c0-0.5,0-1,0.1-1.5
		c0.8-12.3,11.5-21.6,23.8-21.6h83.5c14.5,0,26.2-11.7,26.2-26.2c0-14.5-11.7-26.2-26.2-26.2c0,0,0,0,0,0h-17.5
		c-12.7,0-23.1-10.3-23.1-23.1c0,0,0,0,0,0V-60c0-12.7,10.3-23.1,23.1-23.1c0,0,0,0,0,0h44.9c12.8,0,23.1-10.3,23.1-23.1
		c0-12.8-10.3-23.1-23.1-23.1H528.6c-12.7,0-23.1-10.3-23.1-23.1c0,0,0,0,0,0v-0.1c0-12.7,10.3-23.1,23.1-23.1c0,0,0,0,0,0h62.5
		c13.8,0,24.9-11.2,24.9-24.9c0,0,0,0,0,0c0-13.8-11.2-24.9-24.9-24.9H172.3c-13.8,0-24.9,11.2-24.9,24.9
		c0,13.8,11.2,24.9,24.9,24.9c0,0,0,0,0,0h64.9c12.7,0,23.1,10.3,23.1,23.1c0,0,0,0,0,0v0.1c0,12.7-10.3,23.1-23.1,23.1c0,0,0,0,0,0
		H49.1C36.3-129.3,26-119,26-106.2c0,12.8,10.3,23.1,23.1,23.1H94c12.7,0,23.1,10.3,23.1,23.1c0,0,0,0,0,0v0.1
		c0,12.7-10.3,23.1-23.1,23.1c0,0,0,0,0,0H76.4c-14.5,0-66.2,11.7-66.2,26.2c0,14.5,11.7,26.2,26.2,26.2h83.5
		c12.3,0,23,9.3,23.8,21.6c0.9,12.7-8.8,23.7-21.5,24.6c-0.5,0-1,0.1-1.5,0.1H80.7c-12.1,0-21.9,9.8-21.9,21.9
		c0,12.1,9.8,21.9,21.9,21.9H103c12.3,0,23,9.3,23.8,21.6c0.9,12.7-8.8,23.7-21.5,24.6c-0.5,0-1,0.1-1.5,0.1H56.4
		c-12.1,0-21.9,9.8-21.9,21.9s9.8,21.9,21.9,21.9H160c12.3,0,23,9.3,23.8,21.6c0.9,12.7-8.8,23.7-21.5,24.6c-0.5,0-1,0.1-1.5,0.1
		h-29.2c-13.4,0.1-24.3,11.1-24.2,24.5c0.1,13.3,10.9,24.1,24.2,24.2L358.6,290.5L358.6,290.5z"/>
	<circle class="st1" cx="466" cy="237" r="168"/>
	<path class="st2" d="M297,219h60c4.4,0,8,3.6,8,8l0,0c0,4.4-3.6,8-8,8h-60c-4.4,0-8-3.6-8-8l0,0C289,222.6,292.6,219,297,219z"/>
	<path class="st2" d="M345,180h60c4.4,0,8,3.6,8,8l0,0c0,4.4-3.6,8-8,8h-60c-4.4,0-8-3.6-8-8l0,0C337,183.6,340.6,180,345,180z"/>
</g>
</svg>
