<svg xmlns="http://www.w3.org/2000/svg" width="143.268" height="174.842"><defs><style>.a{fill:#3a3a3a}.d{fill:#2952d6}</style></defs><g transform="translate(-1659.866 -83.104)"><path class="a" d="M1746.078 244.402c-.481 2.083-1.443 6.089 1.121 6.41s6.09-.8 5.29-4.648-6.411-1.762-6.411-1.762z"/><path class="a" d="M1749.05 248.569s19.945-.32 22.83 6.41v2.966h-24.97a2.436 2.436 0 0 1-2.435-2.435v-4.183a2.435 2.435 0 0 1 2.1-2.411z"/><ellipse cx="24.5" cy="7.5" rx="24.5" ry="7.5" transform="translate(1707 184)" fill="#101010"/><path class="a" d="M1777.182 241.432c-.482 2.084-1.442 6.09 1.122 6.411s6.089-.8 5.289-4.648-6.411-1.763-6.411-1.763z"/><path class="a" d="M1780.158 245.599s19.945-.32 22.83 6.41v2.966h-24.97a2.434 2.434 0 0 1-2.434-2.434v-4.186a2.433 2.433 0 0 1 2.1-2.41z"/><path d="M1738.6 98.424s-1.623.112-2.6 6.087-3.26 17.405-9.136 17.727c0 0-4.575 2.616-7.177-1.637a10.51 10.51 0 0 1-1.679 5.457c-.07.112-.154.209-.237.321a5.5 5.5 0 0 1-1.679 1.4l-2.462 1.512-3.4 2.084-3.554-5.694-.854-1.371c.294-.391.574-.784.854-1.162.014-.028.042-.07.057-.1a16.6 16.6 0 0 0 2.21-4.2c1.232-3.736.6-8.086-3.12-15.53-5.6-11.193 7.331-18.595 14.51-18.595s17.292 3.581 20.888 4.883 3.913 6.538-2.621 8.818z" fill="#ddc7c7"/><path class="d" d="M1780.447 244.843c-8.395 1.05-11.291-41.722-11.025-45.654s-2.883-3.932-2.883-3.932c2.365 18.356-10.759 43.023-12.326 47.221s-3.148 4.714-7.611 4.2 0-49.85 0-49.85-36.461 1.049-45.15 0c-3.358-.406-5.2-4.87-6.184-10.969-1.566-9.71-.937-23.575-.615-31.789.5-12.8.531-21.532 12.018-30.976.015 0 .029-.014.057-.042.182-.154.378-.308.573-.461.308-.238.616-.49.938-.728a12.411 12.411 0 0 1 6.254 1.652 17.542 17.542 0 0 1 3.512 2.546q.526.462 1.008.965c.294.294.56.588.839.9 8.535 9.457 13.278 26.989 14.426 29.829 1.566 3.932 36.979 17.308 44.073 20.19 7.079 2.9 8.128 15.223 8.395 21.519s2.092 44.329-6.299 45.379z"/><path d="M1722.16 145.253l-.391-.1-5.149-1.315-9.948-17.756v-2.989c.015 0 .029-.014.057-.042a16.6 16.6 0 0 0 2.21-4.2c1.581 1.33 3.736 3.12 5.555 4.66 1.455 1.245 2.7 2.322 3.274 2.868l.125.126a2.656 2.656 0 0 1 .42.587 12.994 12.994 0 0 1 1.105 2.658 38.038 38.038 0 0 1 1.035 3.68 65.081 65.081 0 0 1 1.6 9.947c.051.631.079 1.26.107 1.876z" fill="#fff"/><path d="M1714.092 132.755h-.7c0-4.554 3.154-6.006 3.288-6.066l.285.639c-.117.053-2.873 1.344-2.873 5.427z" fill="#e8e8e8"/><path class="d" d="M1724.874 178.375a19.911 19.911 0 0 1-11.736 12.215c-7.346 3.106-13.292.644-17.867-3.693-1.566-9.71-.937-23.575-.615-31.789.5-12.8.531-21.532 12.018-30.976.015 0 .029-.014.057-.042.182-.154.378-.308.573-.461a45.63 45.63 0 0 1 6.325 6.7 47.725 47.725 0 0 1 7.033 12.773c.365.993.728 2.014 1.106 3.091a122.555 122.555 0 0 1 1.665 5.219 78.582 78.582 0 0 1 2.238 9.752c.084.475.154.966.209 1.441.742 5.487.658 10.972-1.006 15.77z"/><path d="M1725.881 176.431c0 .941 1.08 1.7 2.411 1.7h56.386c1.332 0 2.411-.762 2.411-1.7 0-.94-1.08-1.7-2.411-1.7h-56.384c-1.333-.002-2.413.76-2.413 1.7z" fill="#aaa"/><path d="M1753.552 174.729l3.935-24.595a4.756 4.756 0 0 1 5.115-4.722h25.577s4.132.786 3.148 5.705-4.241 23.611-4.241 23.611z" fill="#c6c6c6"/><path class="d" d="M1724.307 175.32c-2.083 6.891-7.132 14.41-15.178 14.145-.675-.022-.674 1.028 0 1.05 8.53.279 13.969-7.571 16.189-14.916a.525.525 0 0 0-1.011-.279z"/><path d="M1743.692 92.027c.6 3.731-3.779 6.5-9.522 7.1s-10.734-1.209-12.4 2.268-2.419 6.349-4.081 6.349 0-9.675-3.024-10.431-4.383 2.872-3.779 5.14 1.512 4.233 1.21 5.291-.454 5.593-2.268 4.233-5.744-10.431-4.837-17.535 7.105-11.49 15.721-11.338 22.407 5.38 22.98 8.923z" fill="#121829"/><path d="M1725.218 168.308c.373 12.064-7.017 22.892-19.954 22.417-.58-.02-.58.882 0 .9 13.47.495 21.245-10.732 20.857-23.32-.018-.579-.921-.581-.9 0z" fill="#2e69af"/><path d="M1706.437 133.016c-4.238 2.754-4.827 9.444-2.271 16.134s10.162 26.758 21.51 28.333 19.291 0 19.648-1.575.75-6.3-2.4-6.492-19.478-6.1-23.216-15.15-8.25-24.987-13.271-21.25z" fill="#1e4cc1"/><path class="a" d="M1746.1 245.755a6.406 6.406 0 0 0-.405 3.579c.477 1.429 6.358.75 6.358.75-.015.041.9-3.4 0-5.083s-2.761 0-2.761 0l-2.677.754z"/><path class="a" d="M1746.976 257.788a2.737 2.737 0 0 1-2.366-2.787c0-2.495-.119-5.892 2.366-6.333s19.267.674 22.313 3.917 2.091 5.2 2.091 5.2z"/><path d="M1747.228 197.242s-4.4 43.049-1.455 49.1c2.677 1.667 5.808 2.15 8.365-2.667s11.9-29.365 12.717-34.913c1.243-6.019.344-15.033 0-16.346-1.519-5.877-9.371-2.741-9.371-2.741-.184.257-10.256 5.667-10.256 5.667z" fill="#2a52d6"/></g></svg>