<svg xmlns="http://www.w3.org/2000/svg" width="258.855" height="266.206"><defs><style>.c{fill:#5e5eb7}.h{fill:#aa9df7}.cf{fill:#5d5dc6}.ch{fill:#2952d6}</style><clipPath id="a"><rect width="13.076" height="23.113" rx=".564" transform="rotate(-19.475 12.7 2.18)" fill="none"/></clipPath></defs><g transform="translate(-1309.695 -183.923)"><path d="M1409.454 435.988a83.43 83.43 0 0 0-40.081-28.874c-15.286-5.091-33.616-6.727-43.011-19.815-7.937-11.056-6.2-26.18-3.079-39.427s7.265-27.2 3.1-40.157c-2.478-7.713-7.684-14.217-11.242-21.495-11.279-23.068-4.148-52.375 13.228-71.28s43.178-28.387 68.754-30.663c12.821-1.14 27.376.066 35.859 9.744 8.359 9.537 8.154 24.412 16.442 34.01 5.6 6.483 14.287 9.518 22.794 10.524s17.115.258 25.676.579c12.745.478 25.63 3.455 36.372 10.33s19.136 17.958 21.058 30.567c2.526 16.582-6.03 33.593-2.449 49.98 2.22 10.163 8.859 18.768 12.513 28.508a50.724 50.724 0 0 1-38.076 67.663c-11.9 2.248-25.05.4-35.369 6.734-4.717 2.894-8.352 7.258-12.857 10.471-8.645 6.169-19.945 7.643-30.476 6.265s-20.52-5.353-30.382-9.294z" fill="#efeff4"/><path class="c" d="M1439.752 262.521c8.133 5.834 16.083 12.308 26 14.771 11.149 2.771 22.764.915 34.023.01 23.823-1.915 52.932 5.675 56.657 33.5.151 1.135 1.958 1.15 1.806 0-2.817-21.047-21.513-33.406-41.514-35.445-13.031-1.33-25.956 1.8-38.983 1.558-15.048-.276-25.363-7.554-37.074-15.953-.946-.678-1.848.887-.911 1.559z"/><circle cx="2.593" cy="2.593" r="2.593" transform="translate(1476.903 311.841)" fill="#eae3ec"/><path class="c" d="M1556.428 310.805c2.385 35.387-42.1 43.192-67.206 52.246-11.783 4.251-22.806 13.511-30.828 22.963-4.293 5.059-7.735 12.4-13.821 15.463-5.238 2.635-10.932 5.06-16.736 6.036-6.276 1.056-13.842 1.441-19.5-1.728-5.056-2.833-9.868-6.2-14.822-9.219a156.755 156.755 0 0 0-17.152-8.822c-8.93-4.05-13.755-10.75-14.369-20.553-.914-14.612 8.628-28.4 5.721-42.982-2.387-11.981-13.62-17.445-22.081-24.749-7.327-6.323-11.033-14.35-7.894-24.077 3.008-9.321 10.66-16.954 18.825-22 16.112-9.965 35.416-10.762 53.3-5.744a.903.903 0 0 0 .48-1.741c-15.379-4.316-31.65-4.52-46.546 1.752-12.958 5.457-26.434 16.655-28.79 31.3-2.395 14.877 10.257 22.141 20.2 30.2 7.126 5.781 11.623 12.659 11.161 22.193-.448 9.223-4.434 17.829-5.716 26.914-.9 6.371-.842 13.278 1.831 19.254 2.92 6.528 8.446 9.843 14.787 12.574 7.463 3.214 14.2 7.31 21.1 11.585 3.572 2.214 7.274 5.35 11.161 6.985 6.53 2.746 16.145 1.472 22.768-.258 4.867-1.27 11.169-3.692 15.227-6.7 6.043-4.472 9.695-11.916 14.771-17.364a85.53 85.53 0 0 1 21.577-16.756c6.094-3.325 13.076-5.142 19.638-7.368 9.161-3.108 18.495-5.839 27.214-10.091 15.386-7.5 28.735-21.1 27.507-39.319-.078-1.153-1.884-1.162-1.806 0z"/><path d="M1375.865 381.441l-1.431-12.38-17.638 7.693 1.289 1.5a4.513 4.513 0 0 0-3.216 2.462 2.521 2.521 0 0 0 .882 2.629 8.382 8.382 0 0 0 5.444 1.978 6.39 6.39 0 0 0 2.266-.388l.264-.1.008-.023 1.2 1.4zm-13.087 2.452a7.161 7.161 0 0 1-6.195-1.424c-.354-.338-.74-.854-.592-1.321a3.306 3.306 0 0 1 3-1.789c.019 0 .042.007.06.007l.2.236 3.575 4.152z" fill="#282828"/><rect width="15.949" height="29.3" rx="1.508" transform="rotate(-19.475 1389.281 -3766.107)" fill="#5555a5"/><g transform="translate(1337.43 245.664)" clip-path="url(#a)"><path class="h" d="M7.263 25.446l13.926-5.069.091.25-10.71 8.829z"/><path class="h" d="M7.052 25.197l14.03-5.107.107.293-13.926 5.069z"/><path d="M6.842 24.937l14.133-5.144.107.293-14.03 5.107z" fill="#a99cf6"/><path d="M6.632 24.682l14.237-5.185.107.293-14.133 5.144z" fill="#a89bf6"/><path d="M6.421 24.427l14.34-5.22.107.293-14.241 5.182z" fill="#a79af5"/><path d="M6.211 24.172l14.444-5.258.107.293-14.341 5.22z" fill="#a69af4"/><path d="M6.001 23.916l14.548-5.3.107.293-14.444 5.258z" fill="#a599f4"/><path d="M5.791 23.661l14.651-5.333.107.293-14.548 5.3z" fill="#a498f3"/><path d="M5.585 23.406l14.755-5.371.107.293-14.652 5.333z" fill="#a397f2"/><path d="M5.37 23.15l14.859-5.408.107.293-14.755 5.371z" fill="#a296f2"/><path d="M5.16 22.896l14.962-5.446.107.293L5.37 23.15z" fill="#a195f1"/><path d="M5.013 22.718l-.032-.089 15.035-5.472.107.293-14.964 5.451z" fill="#a095f1"/><path fill="#9f94f0" d="M4.874 22.336l15.04-5.472.107.293L4.98 22.63z"/><path fill="#9e93ef" d="M4.768 22.043l15.035-5.473.107.294-15.035 5.472z"/><path fill="#9d92ef" d="M4.661 21.75l15.04-5.472.107.293-15.04 5.472z"/><path fill="#9c91ee" d="M4.555 21.457l15.04-5.472.107.293-15.04 5.472z"/><path fill="#9b90ed" d="M4.448 21.164l15.04-5.472.107.293-15.04 5.472z"/><path fill="#9a90ed" d="M4.341 20.871l15.04-5.472.107.293-15.04 5.472z"/><path fill="#998fec" d="M4.235 20.578l15.04-5.472.107.293-15.04 5.472z"/><path fill="#988eeb" d="M4.128 20.285l15.04-5.472.107.293-15.04 5.472z"/><path fill="#978deb" d="M4.021 19.993l15.035-5.473.107.294-15.035 5.472z"/><path fill="#968cea" d="M3.915 19.7l15.04-5.472.107.293-15.04 5.472z"/><path fill="#958be9" d="M3.808 19.407l15.04-5.472.107.293L3.915 19.7z"/><path fill="#948ae9" d="M3.702 19.114l15.035-5.473.107.294-15.035 5.472z"/><path fill="#938ae8" d="M3.595 18.821l15.04-5.472.107.293-15.04 5.472z"/><path fill="#9289e8" d="M3.488 18.528l15.04-5.472.107.293-15.04 5.472z"/><path fill="#9188e7" d="M3.382 18.235l15.035-5.473.107.294-15.035 5.472z"/><path fill="#9087e6" d="M3.275 17.942l15.04-5.472.107.293-15.04 5.472z"/><path fill="#8f86e6" d="M3.169 17.649l15.04-5.472.107.293-15.04 5.472z"/><path fill="#8e85e5" d="M3.062 17.356l15.04-5.472.107.293-15.04 5.472z"/><path fill="#8d85e4" d="M2.955 17.064l15.04-5.472.107.293-15.04 5.472z"/><path fill="#8c84e4" d="M2.849 16.771l15.04-5.472.107.293-15.04 5.472z"/><path fill="#8b83e3" d="M2.742 16.478l15.04-5.472.107.293-15.04 5.472z"/><path fill="#8a82e2" d="M2.635 16.185l15.035-5.473.107.294-15.035 5.472z"/><path fill="#8981e2" d="M2.529 15.892l15.04-5.472.107.293-15.04 5.472z"/><path fill="#8880e1" d="M2.422 15.599l15.04-5.472.107.293-15.04 5.472z"/><path fill="#8780e0" d="M2.316 15.306l15.035-5.473.107.294-15.035 5.472z"/><path fill="#867fe0" d="M2.209 15.013l15.04-5.472.107.293-15.04 5.472z"/><path fill="#857edf" d="M2.102 14.72l15.04-5.472.107.293-15.04 5.472z"/><path fill="#837dde" d="M1.996 14.427l15.04-5.472.107.293-15.04 5.472z"/><path fill="#827cde" d="M1.889 14.135l15.04-5.472.107.293-15.04 5.472z"/><path fill="#817bdd" d="M1.783 13.842l15.04-5.472.107.293-15.04 5.472z"/><path fill="#807add" d="M1.676 13.549l15.04-5.472.107.293-15.04 5.472z"/><path fill="#7f7adc" d="M1.569 13.256l15.04-5.472.107.293-15.04 5.472z"/><path fill="#7e79db" d="M1.463 12.963l15.04-5.472.107.293-15.04 5.472z"/><path fill="#7d78db" d="M1.356 12.67l15.04-5.472.107.293-15.04 5.472z"/><path fill="#7c77da" d="M1.25 12.377l15.035-5.473.107.294L1.357 12.67z"/><path fill="#7b76d9" d="M1.143 12.084l15.04-5.472.107.293-15.04 5.472z"/><path fill="#7a75d9" d="M1.036 11.791l15.04-5.472.107.293-15.04 5.472z"/><path fill="#7975d8" d="M.93 11.498l15.035-5.473.107.294L1.037 11.79z"/><path fill="#7874d7" d="M.823 11.206l15.04-5.472.107.293L.93 11.5z"/><path fill="#7773d7" d="M.716 10.913l15.04-5.472.107.293-15.04 5.472z"/><path fill="#7672d6" d="M.61 10.62l15.04-5.472.107.293-15.04 5.472z"/><path fill="#7571d5" d="M.503 10.327l15.04-5.472.107.293L.61 10.62z"/><path fill="#7470d5" d="M.397 10.034l15.04-5.472.107.293-15.04 5.472z"/><path fill="#7370d4" d="M.29 9.741l15.04-5.472.107.293-15.04 5.472z"/><path fill="#726fd4" d="M.183 9.448l15.04-5.472.107.293L.29 9.741z"/><path fill="#716ed3" d="M.077 9.155l15.04-5.472.107.293L.184 9.448z"/><path d="M.077 9.156l-.107-.293 15.02-5.467.03.037.091.251z" fill="#706dd2"/><path d="M-.03 8.863l-.107-.293 14.916-5.429.21.255z" fill="#6f6cd2"/><path d="M-.136 8.569l-.107-.293L14.57 2.884l.21.255z" fill="#6e6bd1"/><path d="M-.243 8.276l-.107-.293 14.709-5.354.21.255z" fill="#6d6ad0"/><path d="M-.349 7.984l-.107-.293 14.605-5.316.21.255z" fill="#6c6ad0"/><path d="M-.455 7.691l-.107-.293 14.5-5.278.21.255z" fill="#6b69cf"/><path d="M-.564 7.398l-.107-.293 14.4-5.241.21.255z" fill="#6a68ce"/><path d="M-.669 7.106l-.106-.293 14.294-5.2.21.255z" fill="#6967ce"/><path d="M-.777 6.812l-.107-.293 14.191-5.165.21.255z" fill="#6866cd"/><path d="M-.882 6.519l-.106-.293 14.087-5.128.21.255z" fill="#6765cc"/><path d="M-.99 6.226l-.107-.293L12.886.843l.21.255z" fill="#6665cc"/><path d="M-1.096 5.934l-.107-.293L12.677.589l.21.255z" fill="#6564cb"/><path d="M-1.203 5.641l-.043-.119.427-.352L12.466.334l.21.255z" fill="#6463cb"/><path d="M-.098 4.575l12.354-4.5.21.255L-.819 5.166z" fill="#6362ca"/><path d="M.624 3.981L12.046-.177l.21.255-12.354 4.5z" fill="#6261c9"/><path d="M1.346 3.387L11.837-.432l.21.255L.625 3.981z" fill="#6160c9"/><path d="M2.068 2.793l9.56-3.48.21.255L1.347 3.387z" fill="#6060c8"/><path d="M2.79 2.199l8.628-3.141.21.255-9.56 3.48z" fill="#5f5fc7"/><path d="M3.512 1.605l7.7-2.8.21.255-8.628 3.141z" fill="#5e5ec7"/><path class="cf" d="M4.234 1.01L11-1.453l.21.255-7.7 2.8zM10.995-1.452L4.229 1.011l5.238-4.316z"/></g><circle cx=".932" cy=".932" r=".932" transform="translate(1350.904 270.221)" fill="#fff"/><path class="ch" d="M1381.932 213.203a3.971 3.971 0 1 1 3.972-3.97 3.975 3.975 0 0 1-3.972 3.97zm0-6.738a2.767 2.767 0 1 0 2.768 2.768 2.77 2.77 0 0 0-2.768-2.768zM1537.542 388.697a4.875 4.875 0 1 1 4.875-4.876 4.88 4.88 0 0 1-4.875 4.876zm0-8.546a3.671 3.671 0 1 0 3.671 3.67 3.675 3.675 0 0 0-3.671-3.67zM1362.761 289.759a2.016 2.016 0 1 1 2.016-2.015 2.018 2.018 0 0 1-2.016 2.015zm0-3.43a1.414 1.414 0 1 0 1.414 1.414 1.416 1.416 0 0 0-1.414-1.414zM1474.406 256.851l2.584-2.584 2.585 2.584-2.585 2.584zM1331.22 350.702l3.813-3.813 3.814 3.813-3.814 3.813zM1445.671 429.171l-1.933-2.9 1.933-2.9 1.934 2.9zm-1.21-2.9l1.21 1.815 1.21-1.815-1.21-1.815zM1513.309 308.839l-1.935-2.9 1.935-2.9 1.933 2.9zm-1.21-2.9l1.21 1.815 1.21-1.815-1.21-1.814z"/></g></svg>