<svg xmlns="http://www.w3.org/2000/svg" xmlns:xlink="http://www.w3.org/1999/xlink" width="632.396" height="691.088"><defs><linearGradient id="c" x1="1.117" y1="1.307" x2="-.001" y2="-.155" gradientUnits="objectBoundingBox"><stop offset="0" stop-color="#fff" stop-opacity="0"/><stop offset="1" stop-color="#d0caee"/></linearGradient><linearGradient id="a" x1="1.055" y1="1.725" x2=".287" y2=".045" gradientUnits="objectBoundingBox"><stop offset="0" stop-color="#fff" stop-opacity="0"/><stop offset="1" stop-color="#3a8cc9"/></linearGradient><linearGradient id="b" x1=".989" y1=".997" x2=".291" y2=".157" gradientUnits="objectBoundingBox"><stop offset=".001" stop-color="#296089"/><stop offset=".998" stop-color="#72b8f7"/></linearGradient><linearGradient id="d" x1=".968" y1="1.534" x2=".2" y2="-.146" xlink:href="#a"/><linearGradient id="e" x1=".93" y1="1.45" x2=".161" y2="-.23" xlink:href="#b"/></defs><g data-name="グループ化 462" transform="translate(-1032.604 -175)"><circle data-name="楕円形 59" cx="210.5" cy="210.5" r="210.5" transform="translate(1244 175)" fill="#eaf0ff"/><g data-name="グループ化 456"><g data-name="グループ化 449"><path data-name="パス 830" d="M1386.55 654.805c1.035 3.483 7.2 2.077 9.057 5.2 1.281 2.154-.377 4.786-.816 7.255a7.4 7.4 0 0 0 .976 5.129 4.98 4.98 0 0 0 2.073 1.96c2.082.963 4.613-.2 6.095-1.951 2.246-2.649 2.774-6.314 3.071-9.775a126.782 126.782 0 0 0-.591-27.059c-.2-1.565-.5-3.247-1.631-4.341a5.332 5.332 0 0 0-2.434-1.219 10.356 10.356 0 0 0-11.439 5.283c-2.612 5.278-.5 12.5-4.525 16.8z" fill="#4c3a33"/><g data-name="グループ化 444" transform="translate(1032.604 709.649)"><rect data-name="長方形 282" width="84.796" height="3.319" rx=".716" transform="translate(0 136.767)" fill="url(#c)"/><rect data-name="長方形 283" width="84.796" height="3.319" rx=".716" transform="translate(163.825 136.767)" fill="url(#c)"/><path data-name="パス 877" d="M.411 0h83.974a.411.411 0 0 1 .415.411v2.5a.411.411 0 0 1-.411.411H.411A.411.411 0 0 1 0 2.908V.411A.411.411 0 0 1 .411 0z" transform="translate(281.867 136.767)" fill="url(#c)"/><path data-name="パス 831" d="M977.4 350.135l-30.339 132.384h5.516l40.267-129.591z" transform="translate(-947.061 -342.433)" fill="url(#a)"/><path data-name="パス 832" d="M1001.76 350.135l30.34 132.384h-5.516l-40.269-129.591z" transform="translate(-914.055 -342.433)" fill="url(#b)"/><path data-name="パス 833" d="M1066.393 350.135l-30.338 132.384h5.516l40.267-129.591z" transform="translate(-872.231 -342.433)" fill="url(#d)"/><path data-name="パス 834" d="M1090.754 350.135l30.338 132.384h-5.516l-40.267-129.591z" transform="translate(-839.224 -342.433)" fill="url(#e)"/><path data-name="長方形 285" fill="#72b8f7" d="M0 0h292.991v10.495H0z"/></g><g data-name="グループ化 446"><path data-name="パス 835" d="M1197.011 846.589s16.591 9.549 17.022 12.873-1.3 3.728-4.243 3.385-22.86-3.59-23.769-7.26-.955-6.171.221-7.929 7.737-2.875 10.769-1.069z" fill="#010602"/><path data-name="パス 836" d="M1258.991 846.589s16.594 9.549 17.022 12.873-1.3 3.728-4.243 3.385-22.86-3.59-23.767-7.26-.955-6.171.219-7.929 7.741-2.875 10.769-1.069z" fill="#010602"/><path data-name="パス 837" d="M1257.367 839.124v6.815s0 1.331-3.218 1.331-3.22-1.331-3.22-1.331v-6.815z" fill="#f4d8c3"/><path data-name="パス 838" d="M1197.658 841.691l-1.948 6.53s-.381 1.276-3.466.355-2.7-2.2-2.7-2.2l1.947-6.53z" fill="#f4d8c3"/><path data-name="パス 839" d="M1258.969 839.54s-7.64 7.382-10.769 3.9c0 0-2.5-28.736-5.283-56.017-2.172-21.483-4.51-42.082-5.927-47.052-1.8-6.3-6.738-21.3-11.505-34.24-1.509-4.087-3-7.971-4.363-11.3-2.08-5.026-3.866-8.818-5.026-10.217-2.872-3.479 1.73-16.273 5.21-24.667 1.823-4.381 3.351-7.547 3.351-7.547l8.965 11.763s17.562 62.368 19.715 69.934c2.153 7.583 5.632 105.443 5.632 105.443z" fill="#0e2f7a"/><path data-name="パス 840" d="M1246.544 778.074c.828 3.406-1.252 6.609-3.627 9.352-2.172-21.483-4.51-42.082-5.927-47.052-1.8-6.3-6.738-21.3-11.505-34.24 1.915 12 4.124 25.275 4.363 30.172.092 1.951-1.417 8.247-3.847 16.881a44.09 44.09 0 0 1-1.97-2.982c-4.989-8.3-6.351-18.206-7.621-27.8-.442-3.424-.884-6.977.221-10.254.939-2.743 2.964-5.3 2.6-8.192-.129-.939-.5-1.822-.644-2.761a6.117 6.117 0 0 1 2.393-5.78l.147-.589.35-1.51a8.217 8.217 0 0 1 1.914-.994c2.89-1.16 4.109-1.106 6.8.477 1.18.7 3.608 1.7 4.444 6.85s-1.9 6.857-1.55 10.189c.368 3.332 3.109 6.165 6.018 7.84 2.872 1.657 3.474 3.6 5.756 6.012 2.6 2.743 2.062 7.161.792 10.714-1.289 3.571-3.148 7.161-2.688 10.9.571 4.344 4.2 7.989 4.05 12.352-.092 3.166-2.154 5.891-2.946 8.946a11.3 11.3 0 0 0 .571 7.216 27.381 27.381 0 0 1 1.906 4.253z" fill="#062460"/><path data-name="パス 841" d="M1208.58 605.005s25.512 1.215 34.936 19.255 11.041 17.829 9.963 24.4-2.154 14.108-3.231 15.454-7.27.808-8.347-2.423 2.962-16.426 1.077-19.657-12.387-14.541-16.7-15.08-17.698-21.949-17.698-21.949z" fill="#1c48c4"/><path data-name="パス 842" d="M1229.847 736.305c.092 1.951-1.417 8.247-3.847 16.881-8.523 30.245-28.2 89.189-28.478 90.7-.589 3.387-7.2 3.037-7.953 0-.773-3.037 12.9-100.345 17.69-107.58-3.479-6.829-13.9-63.951-13.9-63.951s20.12-11.487 27.944-12.407c1.675-.221 2.78.074 3.019 1.049 1.325 5.559-1.73 17.028-1.73 23.71a72.189 72.189 0 0 0 .792 7.621c.534 3.884 1.289 8.726 2.1 13.806 1.915 12.002 4.124 25.275 4.363 30.171z" fill="#0e2f7a"/><path data-name="パス 843" d="M1236.806 668.745c-1.565 2.485-10.622 3.792-20.249 4.308-11.782.607-24.428.018-25.238-1.1-.589-.81-.976-10.511-1.252-21.943-.4-17.378-.5-38.713-.5-38.713 2.319-4.657 12.555-5.651 12.555-5.651h19.126a4.381 4.381 0 0 1 4.013 2.559c5.157 11.485 14.674 55.57 11.545 60.54z" fill="#2a52d6"/><path data-name="パス 844" d="M1247.825 664.801s-1.077 7.66 1.346 11.161 3.262 10.244-.792 9.3-5.4-5.145-6.478-10.184-4.431-8.507-4.477-10.274 3.38-4.608 6.89-2.3z" fill="#f4d8c3"/><path data-name="パス 845" d="M1199.309 605.733a3.065 3.065 0 0 0 .232 3.28 7.7 7.7 0 0 0 2.658 2.2 35.1 35.1 0 0 0 11.689 4.206c.968.164 2.222.14 2.618-.758a2.35 2.35 0 0 0-.457-2.038 15.479 15.479 0 0 0-2.227-3.148c-1.143-1.151-2.675-1.977-3.435-3.411" fill="none" stroke="#5d8aed" stroke-miterlimit="10"/><path data-name="パス 846" d="M1215.399 615.177c-4.51.7-14.58-4.749-15.463-6.517-.865-1.749 0-14.819 0-14.819h9.462v.074l.5 12.389.037.755s9.953 7.442 5.464 8.118z" fill="#f4d8c3"/><path data-name="パス 847" d="M1209.892 606.304c-3.958-2.062-7.989-5.6-7.29-10.714a4.247 4.247 0 0 1 .57-1.749c1.252-2.246 4.253-1.049 6.112 0a.388.388 0 0 1 .111.074z" fill="#e0bea6"/><path data-name="パス 848" d="M1214.589 611.295s2.172-4.5 0-5.655c-4-2.13-1.077-7.925 2.388-3.308 0 0 4.044-10.775 11.918-5.079s-10.018 17.166-10.018 17.166z" fill="#f4d8c3"/><path data-name="パス 849" d="M1190.59 609.632s-10.789 9.04-9.915 18.955 7.542 20.413 13.978 18.081 26.273-32.37 26.273-32.37l-6.4-4.667s-20.139 32.37-23.931 14.872z" fill="#1c48c4"/><path data-name="パス 850" d="M1214.698 575.921s1.561 15.824 0 19.276-4.947 6.618-10.672 3.741-5.206-7.479-5.206-7.479-10.41-1.152-4.424-11.222 13.534-7.479 13.534-7.479z" fill="#f4d8c3"/><g data-name="グループ化 445"><path data-name="パス 851" d="M1201.601 578.099s17.437.65 17.437-5.64-8.07-8.711-19.288-6.818-11 14.786-9.375 21.221 5.4 7.733 8.788 8l-4.317-3.384s-4.46-3.869-2.568-9.3 9.323-4.079 9.323-4.079z" fill="#4456e8"/><path data-name="パス 852" d="M1202.595 574.364l-1.554 11.9s-3.476-2.516-4.556 0 .839 4 2.437 4.814c0 0 .077 1.662.077 2.41a5.336 5.336 0 0 0 .773 1.988l-8.437-6.531-.963-9.048z" fill="#4459e9"/></g><path data-name="パス 853" d="M1216.557 673.054c-11.782.607-24.428.018-25.238-1.1-.589-.81-.976-16.363-1.252-27.8.001 0 .307 29.142 26.49 28.9z" fill="#1e48bc"/></g><path data-name="パス 854" d="M1473.817 668.639s2.653 3.667 6.7 4.352c1.9.324 2.6.948 2.434 2.327s-2.515 1.3-3.1-.075c0 0 3.175 12.614-4.565 11.027s-3.682-7.439-4.619-10.381a74 74 0 0 1-1.767-7.862z" fill="#f4d8c3"/><path data-name="長方形 286" fill="#f4d8c3" d="M1406.504 830.073h5.256v9.257h-5.256z"/><path data-name="パス 855" d="M1411.466 839.401s2.861 8.253.889 9.342-24.135 3.779-26.037 2.649-.1-5.664 5.97-7.468 12.1-4.333 13.924-4.381z" fill="#010602"/><path data-name="長方形 287" fill="#f4d8c3" d="M1451.159 835.532l5.15-1.046 1.843 9.072-5.15 1.046z"/><path data-name="パス 856" d="M1457.993 842.813s3.952 6.846 1.855 9.591-21.74 8.043-23.8 6.918-1.681-5.2 3.91-8.181 11.132-6.732 12.91-7.144z" fill="#010602"/><path data-name="パス 857" d="M1335.991 656.528c-3.752-2.338-10.057-6.231-11.857-4.129s2.807 1.559 1.988 3.393-10.776-1.1-10.745 5.843c.022 5.141 7.886 6.29 12.9 4.031s5.221-4.072 8.512-4.031c-.003 0 4.964-1.519-.798-5.107z" fill="#f4d8c3"/><path data-name="パス 858" d="M1370.04 582.581c.668-9 9.143-12.612 6.307-19.233s-3.785-14.187 2.522-17.97a19.655 19.655 0 0 1 19.548 0c5.674 3.153 18.543-.631 21.882 1.261s6.493 5.613 6.178 13.527 4.412 18.316 11.98 22.416 7.883 19.572 2.207 24.29-51.481 22.532-51.481 22.532l-8.3 22.394s-9.9-19.377-6.428-26.641 6.305-11.993 2.207-20.82-7.247-13.244-6.622-21.756z" fill="#4c3a33"/><path data-name="パス 859" d="M1402.705 602.991c-11.2 4.109-19.24 47.188-25.429 48.862s-41.237.53-42.24 3.875-1.171 7.234.838 8.3 40.164 3.3 46.018.955 20.163-30.144 22.423-36.666 4.222-27.465-1.61-25.326z" fill="#1c48c4"/><path data-name="パス 860" d="M1418.518 708.47c-.129 1.215-.294 6.112-.5 13.346-.258 9.517-.589 23.084-.994 37.59-.957 35.639-2.3 76.892-3.939 77.592-2.54 1.086-1.915 2.246-6.738.35-5.67-2.227-8.063-175.194-8.063-175.194l20.71-3.737s.242 43.297-.476 50.053z" fill="#010602"/><path data-name="パス 861" d="M1410.192 678.534a7.2 7.2 0 0 0-4.341 4.44c-1.293 4.578 3.525 9.177 2.406 13.8-.762 3.15-4.188 5.795-3.255 8.9.871 2.9 4.889 3.551 6.482 6.125 1.907 3.082-.267 7.857 2.362 10.351a7.277 7.277 0 0 0 2.505 1.351c1.572.6 3.336 1.2 4.889.554 2.325-.963 2.787-4 2.9-6.511l1-21.26c.118-2.522.195-5.217-1.116-7.374a30.841 30.841 0 0 1-2.117-3.07c-.786-1.732-.5-3.971-1.828-5.335a5.91 5.91 0 0 0-2.841-1.327l-6.2-1.627z" fill="#1c1c1c"/><path data-name="パス 862" d="M1408.758 676.143s14.959 73.754 19.926 89.723 18.651 73.59 23.616 75.473c1.8.681 3.737-.28 4.781-2.215 2.205-4.087-12.428-85.679-12.783-122.229s-15.967-70.076-15.967-70.076l-21.886 8.5s.619 12.553 2.313 20.824z" fill="#010602"/><path data-name="パス 863" d="M1415.026 598.479c13.435.381 24.012 4.519 27.232 10.04s9.659 27.607 15.64 31.742 19.318 29.08 17.937 30.635-6.012 2.3-7.393-.287-12.124-17.775-17.932-22.823-14.6-26.383-18.83-31.611-18.007-8.116-18.007-8.116z" fill="#1c48c4"/><path data-name="パス 864" d="M1410.784 599.315c-4.35.8-12.426 4.768-15.222 13.348s-1.242 16.658 1.865 21.628 4.037 19.434 2.174 22.453-4.35 6.126-1.242 7.058 34.481 1.865 34.481 1.865l3.107-48.151s-1.355-11.549-7.767-13.967-12.277-8.326-19.145-4.234" fill="#2a52d6"/><path data-name="パス 865" d="M1417.911 600.705c.536 6.461-9.184 9.812-12.056 7.713-2.89-2.1-1.859-6.314 0-7.713 1.859-1.417 1.031-7.658 1.031-7.658a55.357 55.357 0 0 0 4.1-3.958 11.15 11.15 0 0 0 .738-1.878c1.031-2.945 2.6-7.437 2.872.368.353 10.18 2.801 6.646 3.315 13.126z" fill="#f4d8c3"/><path data-name="パス 866" d="M1405.855 600.704c1.859-1.418 1.031-7.658 1.031-7.658a55.335 55.335 0 0 0 4.1-3.958 11.12 11.12 0 0 0 .738-1.878c3.61 13.734-5.869 13.494-5.869 13.494z" fill="#e0bea6"/><path data-name="パス 867" d="M1391.952 579.039c.394 6.666 4.688 18.2 14.3 17.017s9.143-16.225 8.44-21.5-5.861-12.665-13.6-11.61-9.611 8.174-9.14 16.093z" fill="#f4d8c3"/><path data-name="パス 868" d="M1418.02 721.816c-.258 9.517-.589 23.084-.994 37.59l-.276-.055c-1.6-.294-3.369-.7-4.234-2.062-1.288-2.043.295-4.657.295-7.087 0-2.853-2.227-5.265-2.559-8.1-.386-3.148 1.6-6.075 1.988-9.2.294-2.54-.442-5.081-.368-7.64.074-2.356 1.233-4.989 3.387-5.707l-1.9.46a1.908 1.908 0 0 1 2.117-.515h.018c.11.037.2.074.294.11a5.963 5.963 0 0 1 1.915 1.8c.117.13.208.259.317.406z" fill="#1c1c1c"/><path data-name="パス 869" d="M1394.85 571.632c.482 1.7 1.033 3.5 2.393 4.622s3.8 1.084 4.563-.506c.251-.523.313-1.173.766-1.537a1.8 1.8 0 0 1 2.112.293 4.609 4.609 0 0 0 1.944 1.174c1.051.149 1.959-.714 2.984-.987 2.695-.718 5.294 2.7 7.937 1.813a3.437 3.437 0 0 0 2.123-3.061 7.138 7.138 0 0 0-1-3.768 16.137 16.137 0 0 0-30.2 10.13 6.5 6.5 0 0 0 1.684 3.75 3.022 3.022 0 0 0 3.814.414 3.33 3.33 0 0 0 .987-2.979 21.173 21.173 0 0 0-.83-3.161 12.152 12.152 0 0 1 .055-6.489" fill="#4c3a33"/><path data-name="パス 870" d="M1536.914 832.381c-.214-5.353 1.32-10.64 3.4-15.577a37.647 37.647 0 0 1 7.805-12.343 19.519 19.519 0 0 1 13.039-5.981 9.686 9.686 0 0 1 6.662 2.117 7.209 7.209 0 0 1 .184 10.143c-3.07 2.953-7.969 2.491-12 3.86-4.565 1.55-7.921 5.46-10.48 9.549s-4.578 8.545-7.687 12.229z" fill="#72b8f7"/><path data-name="パス 871" d="M1536.591 835.111c-2.7-.782-3.634-4.217-3.29-7.01s1.489-5.541 1.1-8.326a7.721 7.721 0 0 0-1.653-3.778c-1.086-1.331-2.677-2.408-3.012-4.092a3.831 3.831 0 0 1 1.556-3.661 6.259 6.259 0 0 1 3.967-1.1 9.189 9.189 0 0 1 7.034 14.727c-.626.827-1.388 1.543-2.023 2.362-2.592 3.341-2.786 7.921-2.52 12.142l-1.756-.825" fill="#81b8dd"/><path data-name="パス 872" d="M1516.378 832.416l2.844 33.012a.721.721 0 0 0 .718.661h6.22l-2.967-34.457h-6.1a.722.722 0 0 0-.715.784z" fill="#2782de"/><path data-name="パス 873" d="M1527.529 839.726c-.976-13.775-16.174-23.145-17.711-36.869a10.18 10.18 0 0 1 .779-5.791 5.242 5.242 0 0 1 4.731-3c2.042.131 3.7 1.764 4.676 3.562 3.015 5.539 1.3 12.783 4.451 18.245 2.016 3.492 5.813 5.836 7.251 9.6 2 5.232-1.268 10.9-4.617 15.384" fill="#81b8dd"/><path data-name="パス 874" d="M1525.912 832.209l-4.087-2.012a14.47 14.47 0 0 1-5.344-3.731c-1.338-1.736-1.74-4.407-.3-6.064s4.171-1.618 5.935-.344a8.081 8.081 0 0 1 2.927 5.631 12.7 12.7 0 0 0 .639 3.584 13.57 13.57 0 0 1 1.034 2.143c.19.773-.147 1.776-.931 1.909a4.118 4.118 0 0 0-1.2-1.574" fill="#72b8f7"/><path data-name="パス 875" d="M1543.968 866.087h-21.271l-2.967-34.457h27.044a.943.943 0 0 1 .939 1.025l-2.8 32.568a.945.945 0 0 1-.945.864z" fill="#0856bc"/><g data-name="グループ化 447"><path data-name="長方形 288" fill="#56a1d8" d="M1096.523 682.058h22.136v27.591h-22.136z"/></g><g data-name="グループ化 448"><path data-name="パス 876" d="M1118.659 706.397a9.664 9.664 0 1 1 9.665-9.664 9.675 9.675 0 0 1-9.665 9.664zm0-15.647a5.983 5.983 0 1 0 5.983 5.983 5.99 5.99 0 0 0-5.983-5.983z" fill="#56a1d8"/></g></g><g data-name="グループ化 450" transform="translate(1047.698 559.854)"><rect data-name="長方形 289" width="53.284" height="30.54" rx="13.789" fill="#d4e8f4"/><path data-name="パス 878" d="M28.696 26.205a17.008 17.008 0 0 0 2.743 6.616c1.2 1.542 2.348 2.336 4.005 2.358a.622.622 0 0 0 .495-.994c-1.51-2.126-1.425-4.687-.81-7.435a.772.772 0 0 0-.034-.632.707.707 0 0 0-.548-.206 7.387 7.387 0 0 0-5.09 1.676" fill="#d4e8f4"/><circle data-name="楕円形 53" cx="2.226" cy="2.226" r="2.226" transform="translate(14.983 13.244)" fill="#fff"/><circle data-name="楕円形 54" cx="2.226" cy="2.226" r="2.226" transform="translate(24.534 13.081)" fill="#fff"/><circle data-name="楕円形 55" cx="2.226" cy="2.226" r="2.226" transform="translate(34.085 13.081)" fill="#fff"/></g><g data-name="グループ化 454" transform="translate(1088.011 454.898)"><rect data-name="長方形 289" width="74.54" height="42.723" rx="13.789" fill="#d4e8f4"/><path data-name="パス 878" d="M40.144 36.659c.783 3.273 1.77 6.6 3.837 9.255 1.678 2.156 3.284 3.268 5.6 3.3a.87.87 0 0 0 .692-1.39c-2.112-2.974-1.994-6.556-1.134-10.4a1.081 1.081 0 0 0-.048-.885.99.99 0 0 0-.767-.288 10.334 10.334 0 0 0-7.12 2.344" fill="#d4e8f4"/><circle data-name="楕円形 53" cx="3.114" cy="3.114" r="3.114" transform="translate(20.96 18.527)" fill="#fff"/><circle data-name="楕円形 54" cx="3.114" cy="3.114" r="3.114" transform="translate(34.321 18.299)" fill="#fff"/><circle data-name="楕円形 55" cx="3.114" cy="3.114" r="3.114" transform="translate(47.683 18.299)" fill="#fff"/></g><g data-name="グループ化 455" transform="translate(1344.313 454.898)"><rect data-name="長方形 289" width="74.54" height="42.723" rx="13.789" fill="#d4e8f4"/><path data-name="パス 878" d="M40.144 36.659c.783 3.273 1.77 6.6 3.837 9.255 1.678 2.156 3.284 3.268 5.6 3.3a.87.87 0 0 0 .692-1.39c-2.112-2.974-1.994-6.556-1.134-10.4a1.081 1.081 0 0 0-.048-.885.99.99 0 0 0-.767-.288 10.334 10.334 0 0 0-7.12 2.344" fill="#d4e8f4"/><circle data-name="楕円形 53" cx="3.114" cy="3.114" r="3.114" transform="translate(20.96 18.527)" fill="#fff"/><circle data-name="楕円形 54" cx="3.114" cy="3.114" r="3.114" transform="translate(34.321 18.299)" fill="#fff"/><circle data-name="楕円形 55" cx="3.114" cy="3.114" r="3.114" transform="translate(47.683 18.299)" fill="#fff"/></g><g data-name="グループ化 452" transform="translate(1428.521 415.412)"><rect data-name="長方形 291" width="96.56" height="55.344" rx="13.789" transform="rotate(-180 48.28 27.672)" fill="#99ccf2"/><path data-name="パス 880" d="M44.558 47.489c-1.015 4.241-2.294 8.548-4.971 11.989-2.174 2.794-4.255 4.235-7.259 4.274a1.127 1.127 0 0 1-.9-1.8c2.736-3.852 2.582-8.492 1.468-13.474a1.406 1.406 0 0 1 .062-1.146 1.288 1.288 0 0 1 .994-.374 13.393 13.393 0 0 1 9.223 3.036" fill="#99ccf2"/><circle data-name="楕円形 56" cx="4.034" cy="4.034" r="4.034" transform="translate(61.339 24)" fill="#fff"/><circle data-name="楕円形 57" cx="4.034" cy="4.034" r="4.034" transform="translate(44.031 23.705)" fill="#fff"/><circle data-name="楕円形 58" cx="4.034" cy="4.034" r="4.034" transform="translate(26.722 23.705)" fill="#fff"/></g><g data-name="グループ化 453" transform="translate(1205.319 468.501)"><rect data-name="長方形 291" width="96.226" height="55.152" rx="13.789" transform="rotate(-180 48.113 27.576)" fill="#99ccf2"/><path data-name="パス 880" d="M44.404 47.324c-1.011 4.227-2.286 8.518-4.954 11.947-2.166 2.784-4.24 4.22-7.234 4.259a1.123 1.123 0 0 1-.892-1.8c2.727-3.839 2.573-8.463 1.463-13.428a1.4 1.4 0 0 1 .062-1.142 1.283 1.283 0 0 1 .99-.372 13.346 13.346 0 0 1 9.191 3.026" fill="#99ccf2"/><circle data-name="楕円形 56" cx="4.02" cy="4.02" r="4.02" transform="translate(61.127 23.917)" fill="#fff"/><circle data-name="楕円形 57" cx="4.02" cy="4.02" r="4.02" transform="translate(43.878 23.622)" fill="#fff"/><circle data-name="楕円形 58" cx="4.02" cy="4.02" r="4.02" transform="translate(26.63 23.622)" fill="#fff"/></g></g><text data-name="Let’s post your works &amp; Talk with everyone" transform="translate(1033 309)" fill="#414141" font-size="35" font-family="Helvetica-Bold, Helvetica" font-weight="700" letter-spacing=".02em"><tspan x="0" y="0">Let’s post your works &amp;</tspan><tspan x="0" y="55">Talk with everyone</tspan></text></g></svg>