<svg xmlns="http://www.w3.org/2000/svg" width="26.537" height="18.047" viewBox="0 0 26.537 18.047">
  <g id="グループ化_502" data-name="グループ化 502" transform="translate(-480.83 -419.361)">
    <g id="グループ化_500" data-name="グループ化 500" transform="translate(480.83 419.361)">
      <path id="パス_893" data-name="パス 893" d="M505.243,437.408H482.954a2.126,2.126,0,0,1-2.124-2.123v-13.8a2.126,2.126,0,0,1,2.124-2.124h22.289a2.126,2.126,0,0,1,2.124,2.124v13.8A2.126,2.126,0,0,1,505.243,437.408ZM482.954,420.8a.686.686,0,0,0-.685.685v13.8a.686.686,0,0,0,.685.685h22.289a.686.686,0,0,0,.685-.685v-13.8a.686.686,0,0,0-.685-.685Z" transform="translate(-480.83 -419.361)"/>
    </g>
    <g id="グループ化_501" data-name="グループ化 501" transform="translate(481.189 421.723)">
      <path id="パス_894" data-name="パス 894" d="M494.913,434.752l-13.085-7.578.721-1.245,12.364,7.16,12.011-6.959.721,1.245Z" transform="translate(-481.828 -425.929)"/>
    </g>
  </g>
</svg>
