<svg xmlns="http://www.w3.org/2000/svg" width="21.857" height="23.213" viewBox="0 0 21.857 23.213">
  <g id="グループ化_9" data-name="グループ化 9" transform="translate(-216.83 -115.591)">
    <g id="グループ化_7" data-name="グループ化 7" transform="translate(216.83 115.591)">
      <path id="パス_6" data-name="パス 6" d="M226.737,135.406a9.907,9.907,0,1,1,9.907-9.907A9.918,9.918,0,0,1,226.737,135.406Zm0-17.521a7.613,7.613,0,1,0,7.613,7.613A7.622,7.622,0,0,0,226.737,117.885Z" transform="translate(-216.83 -115.591)" fill="#bcbcbc"/>
    </g>
    <g id="グループ化_8" data-name="グループ化 8" transform="translate(231.692 131.81)">
      <path id="パス_7" data-name="パス 7" d="M268.029,172.076a1.145,1.145,0,0,1-.811-.336l-4.7-4.7a1.147,1.147,0,0,1,1.622-1.623l4.7,4.7a1.147,1.147,0,0,1-.811,1.958Z" transform="translate(-262.182 -165.082)" fill="#bcbcbc"/>
    </g>
  </g>
</svg>
