<svg xmlns="http://www.w3.org/2000/svg" width="24.378" height="24.028"><path d="M14.262 24.028l-.239-.286-.3-.364c-.428-.521-1.225-1.49-1.534-1.511-.306.022-1.1.99-1.53 1.51-.1.123-.2.245-.3.365l-.239.286-.365-.074a12.114 12.114 0 0 1-2.617-.854l-.338-.155-.026-.371a45.536 45.536 0 0 1-.033-.537 5.807 5.807 0 0 0-.324-2.048 5.925 5.925 0 0 0-2.063.329c-.172.045-.343.09-.513.132l-.36.09-.251-.273a12.257 12.257 0 0 1-1.621-2.216l-.185-.325.2-.317c.09-.145.184-.291.277-.437.355-.557 1.017-1.594.952-1.892a5.926 5.926 0 0 0-1.815-.909c-.187-.073-.375-.146-.558-.221l-.343-.139-.043-.368a11.937 11.937 0 0 1-.01-2.783l.041-.371.345-.141c.186-.076.378-.151.569-.225a5.72 5.72 0 0 0 1.818-.92 5.889 5.889 0 0 0-.956-1.88c-.1-.159-.2-.318-.3-.474l-.2-.316.183-.323a12.226 12.226 0 0 1 1.585-2.194l.251-.276.362.089c.189.047.38.1.572.146a5.8 5.8 0 0 0 2.07.323 5.979 5.979 0 0 0 .315-2.04c.012-.207.024-.415.039-.617l.027-.37.338-.154A12.121 12.121 0 0 1 9.699.078l.366-.076.24.286c.118.14.236.284.355.429.428.52 1.225 1.489 1.534 1.511.306-.022 1.1-.991 1.53-1.511.119-.144.237-.289.355-.429l.24-.286.366.076a12.136 12.136 0 0 1 2.556.839l.337.154.027.37c.015.2.027.41.039.616a5.807 5.807 0 0 0 .324 2.047 5.95 5.95 0 0 0 2.062-.329c.192-.05.383-.1.572-.146l.362-.089.251.276A12.22 12.22 0 0 1 22.8 6.01l.183.323-.2.316c-.1.156-.2.315-.3.474-.355.557-1.017 1.594-.952 1.892a5.912 5.912 0 0 0 1.814.909l.569.225.345.14.041.371a11.955 11.955 0 0 1-.01 2.783l-.043.368-.343.139c-.183.075-.371.148-.558.221a5.736 5.736 0 0 0-1.819.921 5.886 5.886 0 0 0 .956 1.88l.278.439.2.317-.186.325a12.239 12.239 0 0 1-1.621 2.216l-.251.273-.36-.09c-.169-.042-.341-.087-.513-.131a5.758 5.758 0 0 0-2.072-.323 5.98 5.98 0 0 0-.315 2.042c-.011.18-.021.361-.033.538l-.026.371-.338.155a12.12 12.12 0 0 1-2.617.854zM7.995 22.11a10.856 10.856 0 0 0 1.643.537l.054-.065c.832-1.012 1.618-1.967 2.5-1.967s1.666.956 2.5 1.968l.053.064a10.843 10.843 0 0 0 1.643-.537l.009-.148c.079-1.332.146-2.483.832-2.982s1.817-.212 3.118.126l.136.036a11.007 11.007 0 0 0 1.018-1.392l-.068-.107c-.727-1.14-1.355-2.125-1.088-2.947.258-.795 1.32-1.21 2.55-1.691l.195-.076a10.666 10.666 0 0 0 .006-1.761l-.2-.079c-1.23-.481-2.291-.9-2.55-1.691-.267-.823.361-1.808 1.088-2.947l.091-.143a10.977 10.977 0 0 0-.989-1.37l-.189.049c-1.3.339-2.425.63-3.118.126s-.753-1.649-.832-2.981l-.013-.223a10.879 10.879 0 0 0-1.589-.523l-.1.126c-.832 1.012-1.618 1.967-2.5 1.967s-1.666-.955-2.5-1.967l-.1-.126a10.853 10.853 0 0 0-1.589.523c0 .074-.009.149-.013.224-.079 1.332-.146 2.483-.831 2.981s-1.817.212-3.117-.126l-.19-.049a10.963 10.963 0 0 0-.989 1.37l.091.143c.727 1.14 1.355 2.124 1.088 2.947-.258.8-1.32 1.21-2.55 1.692l-.2.079a10.318 10.318 0 0 0 .007 1.761l.195.076c1.23.481 2.292.9 2.55 1.691.267.823-.361 1.808-1.088 2.948l-.068.106a11.007 11.007 0 0 0 1.019 1.393l.135-.036c1.3-.338 2.425-.63 3.119-.126s.753 1.65.832 2.982zm4.2-4.218a5.883 5.883 0 1 1 5.883-5.883 5.889 5.889 0 0 1-5.889 5.885zm0-10.514a4.632 4.632 0 1 0 4.632 4.632 4.637 4.637 0 0 0-4.638-4.633z"/></svg>