<svg xmlns="http://www.w3.org/2000/svg" width="35.836" height="35.836"><circle data-name="楕円形 47" cx="17.918" cy="17.918" r="17.918" fill="#1da1f2"/><path data-name="パス 598" d="M14.636 27.37a12.209 12.209 0 0 0 12.292-12.292c0-.188 0-.376-.009-.555a8.85 8.85 0 0 0 2.159-2.24 8.768 8.768 0 0 1-2.482.681 4.318 4.318 0 0 0 1.9-2.392 8.748 8.748 0 0 1-2.741 1.048 4.323 4.323 0 0 0-7.472 2.956 3.959 3.959 0 0 0 .116.985 12.255 12.255 0 0 1-8.905-4.515 4.318 4.318 0 0 0 1.344 5.761 4.244 4.244 0 0 1-1.953-.538v.054a4.325 4.325 0 0 0 3.467 4.238 4.307 4.307 0 0 1-1.138.152 4.125 4.125 0 0 1-.815-.081 4.313 4.313 0 0 0 4.032 3 8.684 8.684 0 0 1-5.366 1.846 7.857 7.857 0 0 1-1.03-.063 12.036 12.036 0 0 0 6.6 1.953" fill="#fff"/></svg>