<svg xmlns="http://www.w3.org/2000/svg" width="14.193" height="18.84" viewBox="0 0 14.193 18.84">
  <g id="グループ化_64" data-name="グループ化 64" transform="translate(214.647 493.431) rotate(-150)">
    <g id="グループ化_61" data-name="グループ化 61" transform="translate(418.878 308.879)">
      <path id="パス_62" data-name="パス 62" d="M424.13,332.918h-4.76a.492.492,0,0,1-.492-.492V317.679a.492.492,0,0,1,.492-.492h4.76a.491.491,0,0,1,.492.492v14.748A.492.492,0,0,1,424.13,332.918Zm-4.269-.983h3.777V318.17h-3.777Z" transform="translate(-418.878 -317.187)" fill="#414141"/>
    </g>
    <g id="グループ化_62" data-name="グループ化 62" transform="translate(418.878 321.583)">
      <path id="パス_63" data-name="パス 63" d="M424.13,369.856h-4.76a.492.492,0,0,1,0-.983h4.76a.492.492,0,1,1,0,.983Z" transform="translate(-418.878 -368.873)" fill="#414141"/>
    </g>
    <g id="グループ化_63" data-name="グループ化 63" transform="translate(418.878 306.171)">
      <path id="パス_64" data-name="パス 64" d="M424.131,309.862a.49.49,0,0,1-.369-.167l-2.011-2.287-2.011,2.287a.492.492,0,0,1-.738-.649l2.38-2.707a.491.491,0,0,1,.369-.167h0a.491.491,0,0,1,.369.167l2.38,2.707a.492.492,0,0,1-.369.816Z" transform="translate(-418.879 -306.171)" fill="#414141"/>
    </g>
  </g>
</svg>
