<svg xmlns="http://www.w3.org/2000/svg" width="21.59" height="23.6"><defs><style>.a{fill:#bcbcbc}</style></defs><path class="a" d="M15.014 20.905H1.522A1.524 1.524 0 0 1 0 19.382V1.57A1.524 1.524 0 0 1 1.522.048h13.491a1.524 1.524 0 0 1 1.522 1.522v6.35h-1.529V1.57l-13.485.007.007 17.806 13.484-.006-.007-6.035h1.529v6.042a1.524 1.524 0 0 1-1.52 1.521z"/><path class="a" d="M13.794 9.653h6.315v2.086h-6.315a1.043 1.043 0 0 1-1.043-1.043 1.043 1.043 0 0 1 1.043-1.043z"/><path class="a" d="M21.405 10.376l-3.446-2.7a.37.37 0 0 0-.555.32v5.391a.37.37 0 0 0 .555.32l3.446-2.7a.37.37 0 0 0 0-.631zM6.575 23.509l-5.294-2.543A2.26 2.26 0 0 1 0 18.93V1.121A1.119 1.119 0 0 1 1.6.112l5.759 2.767a.911.911 0 0 1 .517.821v18.988a.911.911 0 0 1-1.301.821z"/></svg>