<svg xmlns="http://www.w3.org/2000/svg" width="17.774" height="13.872"><g data-name="グループ化 294"><path data-name="パス 591" d="M17.773 6.145C17.573.245 9.219-.911 4.906.603c-2.2.772-4.484 2.4-4.857 4.867-.349 2.317 1.188 4.291 3.093 5.412a11.374 11.374 0 0 0 4.654 1.407 1.447 1.447 0 0 1 1.084.439 5.566 5.566 0 0 0 .78.622 4.009 4.009 0 0 0 2.548.488.56.56 0 0 0 .39-.942 2.922 2.922 0 0 1-.667-1.52l-.385.679c2.936-.682 6.1-2.567 6.227-5.91.026-.71-1.077-.709-1.1 0-.1 2.818-3.007 4.286-5.417 4.846a.565.565 0 0 0-.385.679 3.942 3.942 0 0 0 .951 2.007l.39-.942a3.016 3.016 0 0 1-2.656-.9 1.514 1.514 0 0 0-1.175-.613 11.212 11.212 0 0 1-4.537-1.212C1.455 8.665.113 5.922 2.144 3.618S7.782.741 10.656 1.187c2.584.4 5.918 1.949 6.021 4.959.017.707 1.121.71 1.096-.001z" fill="#5082f4"/></g></svg>