<svg xmlns="http://www.w3.org/2000/svg" width="18.044" height="19.724" viewBox="0 0 18.044 19.724">
  <g id="グループ化_518" data-name="グループ化 518" transform="translate(-498.323 -1175)">
    <path id="パス_79" data-name="パス 79" d="M209,619.536H197.724a1.274,1.274,0,0,1-1.272-1.273V603.376a1.274,1.274,0,0,1,1.272-1.272H209a1.274,1.274,0,0,1,1.272,1.272v5.307h-1.278v-5.307l-11.27.006.006,14.881,11.27-.005-.006-5.044h1.278v5.049A1.274,1.274,0,0,1,209,619.536Z" transform="translate(301.871 572.935)" fill="#676767"/>
    <path id="長方形_59" data-name="長方形 59" d="M.872,0H6.15a0,0,0,0,1,0,0V1.743a0,0,0,0,1,0,0H.872A.872.872,0,0,1,0,.872v0A.872.872,0,0,1,.872,0Z" transform="translate(508.98 1183.067)" fill="#676767"/>
    <path id="パス_82" data-name="パス 82" d="M256.708,629.193l-2.88-2.253a.309.309,0,0,0-.464.267v4.506a.309.309,0,0,0,.464.268l2.88-2.253A.309.309,0,0,0,256.708,629.193Z" transform="translate(259.504 554.479)" fill="#676767"/>
    <path id="パス_83" data-name="パス 83" d="M201.947,621.6l-4.424-2.126a1.889,1.889,0,0,1-1.071-1.7V602.886a.936.936,0,0,1,1.341-.843l4.814,2.313a.762.762,0,0,1,.432.686v15.869A.761.761,0,0,1,201.947,621.6Z" transform="translate(301.871 573.051)" fill="#676767"/>
  </g>
</svg>
