<svg xmlns="http://www.w3.org/2000/svg" width="14.002" height="20.43"><g data-name="グループ化 306"><g data-name="グループ化 296"><path data-name="パス 599" d="M12.52 20.43H1.483A1.485 1.485 0 0 1 0 18.947V3.476a1.484 1.484 0 0 1 1.483-1.483H12.52a1.485 1.485 0 0 1 1.483 1.483v15.471a1.485 1.485 0 0 1-1.483 1.483zM1.483 3.021a.455.455 0 0 0-.455.454v15.471a.455.455 0 0 0 .455.455H12.52a.455.455 0 0 0 .455-.455V3.476a.455.455 0 0 0-.455-.454z" fill="#fff"/></g><g data-name="グループ化 297"><rect data-name="長方形 244" width="9.549" height=".659" rx=".33" transform="translate(2.227 6.594)" fill="#fff"/></g><g data-name="グループ化 298"><rect data-name="長方形 245" width="9.549" height=".659" rx=".33" transform="translate(2.227 7.956)" fill="#fff"/></g><g data-name="グループ化 299"><rect data-name="長方形 246" width="9.549" height=".659" rx=".33" transform="translate(2.227 9.318)" fill="#fff"/></g><g data-name="グループ化 300"><rect data-name="長方形 247" width="3.863" height=".659" rx=".33" transform="translate(2.227 10.68)" fill="#fff"/></g><g data-name="グループ化 301"><rect data-name="長方形 248" width="9.549" height=".659" rx=".33" transform="translate(2.227 13.197)" fill="#fff"/></g><g data-name="グループ化 302"><rect data-name="長方形 249" width="9.549" height=".659" rx=".33" transform="translate(2.227 14.559)" fill="#fff"/></g><g data-name="グループ化 303"><rect data-name="長方形 250" width="3.863" height=".659" rx=".33" transform="translate(2.227 15.918)" fill="#fff"/></g><g data-name="グループ化 304"><rect data-name="長方形 251" width="6.428" height="2.604" rx="1.302" transform="translate(3.787 1.239)" fill="#fff"/></g><g data-name="グループ化 305"><path data-name="パス 600" d="M8.995 1.329h-3.8c-.641 0 .154-.3.154-.662a.662.662 0 0 1 .662-.662H8.18a.662.662 0 0 1 .662.662c-.001.362.793.662.153.662zM7.136.369a.438.438 0 1 0 .438.438.438.438 0 0 0-.438-.443z" fill="#fff"/></g></g></svg>