<svg xmlns="http://www.w3.org/2000/svg" width="30.25" height="28.681" viewBox="0 0 30.25 28.681">
  <g id="グループ化_45" data-name="グループ化 45" transform="translate(-795.995 -313.497)">
    <g id="グループ化_43" data-name="グループ化 43" transform="translate(795.995 313.497)">
      <g id="グループ化_42" data-name="グループ化 42">
        <path id="パス_51" data-name="パス 51" d="M805.855,313.5a1.786,1.786,0,0,1,1.267.525l8.069,8.069a1.792,1.792,0,0,1-2.535,2.535l-6.8-6.8-6.8,6.8a1.792,1.792,0,0,1-2.535-2.535l8.069-8.069A1.786,1.786,0,0,1,805.855,313.5Z" transform="translate(-795.995 -313.497)" fill="#cbcbcb"/>
      </g>
    </g>
    <g id="グループ化_44" data-name="グループ化 44" transform="translate(804.287 313.946)">
      <path id="パス_52" data-name="パス 52" d="M834.889,342.731H816.068a1.568,1.568,0,0,1-1.568-1.568V316.068a1.568,1.568,0,0,1,3.137,0v23.526h17.252a1.568,1.568,0,1,1,0,3.137Z" transform="translate(-814.5 -314.5)" fill="#cbcbcb"/>
    </g>
  </g>
</svg>
