<svg xmlns="http://www.w3.org/2000/svg" xmlns:xlink="http://www.w3.org/1999/xlink" width="188.22" height="50.721" viewBox="0 0 188.22 50.721">
  <defs>
    <clipPath id="clip-path">
      <rect width="188.22" height="50.721" fill="none"/>
    </clipPath>
  </defs>
  <g id="logo" clip-path="url(#clip-path)">
    <path id="パス_70" data-name="パス 70" d="M394.922,674.745a10.31,10.31,0,1,1,10.31,10.31A10.318,10.318,0,0,1,394.922,674.745Zm4.067,0a6.244,6.244,0,1,0,6.244-6.245A6.267,6.267,0,0,0,398.989,674.745Z" transform="translate(-273.648 -656.302)" fill="#ffe000"/>
    <g id="グループ化_85" data-name="グループ化 85" transform="translate(-33 -56.773)">
      <path id="パス_65" data-name="パス 65" d="M267.018,670.316a14.489,14.489,0,0,1,14.5-14.459,13.887,13.887,0,0,1,12.283,7.106,2.051,2.051,0,1,1-3.45,2.218,10.249,10.249,0,0,0-8.832-5.135,10.363,10.363,0,0,0-10.31,10.27,10.276,10.276,0,0,0,18.9,5.423,1.782,1.782,0,0,1,2.711-.492,1.81,1.81,0,0,1,.74,2.711,14.189,14.189,0,0,1-12.036,6.654A14.482,14.482,0,0,1,267.018,670.316Z" transform="translate(-234.018 -599.084)" fill="#5082f4"/>
      <path id="パス_66" data-name="パス 66" d="M316.01,666.491v10.352a8.318,8.318,0,0,1-16.637,0V666.491a2.033,2.033,0,0,1,4.067,0v10.27a4.252,4.252,0,1,0,8.5,0v-10.27a2.033,2.033,0,0,1,4.067,0Z" transform="translate(-235.695 -599.531)" fill="#5082f4"/>
      <path id="パス_67" data-name="パス 67" d="M332.614,666.491a2.059,2.059,0,0,1-2.054,2.054,6.242,6.242,0,0,0-6.244,6.244v8.257a2.033,2.033,0,1,1-4.066,0v-8.257a10.317,10.317,0,0,1,10.309-10.31A2.025,2.025,0,0,1,332.614,666.491Z" transform="translate(-236.777 -599.531)" fill="#5082f4"/>
      <path id="パス_68" data-name="パス 68" d="M353.308,674.914v8.051a1.986,1.986,0,0,1-2.054,2.055,2.164,2.164,0,0,1-1.972-2.055,8.95,8.95,0,0,1-6.08,2.055,10.087,10.087,0,0,1-10.392-10.106A10.327,10.327,0,0,1,343.2,664.521,10.088,10.088,0,0,1,353.308,674.914Zm-4.026,0a6.21,6.21,0,0,0-6.08-6.367,6.454,6.454,0,0,0-6.367,6.367,6.209,6.209,0,0,0,6.367,6.08A5.964,5.964,0,0,0,349.283,674.914Z" transform="translate(-237.428 -599.533)" fill="#5082f4"/>
      <path id="パス_69" data-name="パス 69" d="M363.65,670.316a14.489,14.489,0,0,1,14.5-14.459,13.887,13.887,0,0,1,12.283,7.106,2.051,2.051,0,1,1-3.45,2.218,10.249,10.249,0,0,0-8.832-5.135,10.363,10.363,0,0,0-10.31,10.27,10.276,10.276,0,0,0,18.9,5.423,1.782,1.782,0,0,1,2.711-.492,1.81,1.81,0,0,1,.74,2.711,14.189,14.189,0,0,1-12.036,6.654A14.482,14.482,0,0,1,363.65,670.316Z" transform="translate(-239.027 -599.084)" fill="#5082f4"/>
      <path id="パス_71" data-name="パス 71" d="M440.4,674.745V683a2.033,2.033,0,1,1-4.066,0v-8.256a6.244,6.244,0,1,0-12.488,0V683a2.033,2.033,0,1,1-4.067,0v-8.256a10.31,10.31,0,1,1,20.621,0Z" transform="translate(-241.937 -599.529)" fill="#5082f4"/>
      <path id="パス_72" data-name="パス 72" d="M464.4,674.745a2.025,2.025,0,0,1-2.054,2.013H448.175a6.261,6.261,0,0,0,5.916,4.231,8.058,8.058,0,0,0,4.6-1.355,1.963,1.963,0,0,1,2.711.945,2.139,2.139,0,0,1-.985,2.711,10.055,10.055,0,0,1-6.326,1.766,10.311,10.311,0,1,1,0-20.622A10.115,10.115,0,0,1,464.4,674.745Zm-16.226-2.054h11.872a6.009,6.009,0,0,0-5.956-4.191A6.281,6.281,0,0,0,448.175,672.692Z" transform="translate(-243.18 -599.529)" fill="#5082f4"/>
      <g id="グループ化_65" data-name="グループ化 65" transform="translate(161.969 94.151)">
        <path id="パス_73" data-name="パス 73" d="M403.455,702.767l-.139-.108a.8.8,0,0,1-.277-.593.849.849,0,0,1,.216-.624,11.027,11.027,0,0,0,2.527-5.039,1.007,1.007,0,0,1,.361-.6.943.943,0,0,1,.655-.215l.262.015a.824.824,0,0,1,.585.308.721.721,0,0,1,.17.616,2.577,2.577,0,0,1-.077.385c-.02.082.016.123.107.123h5.778a.871.871,0,0,1,.632.254.766.766,0,0,1,.247.609q-.108,4.9-2.357,7.342t-7.072,3.011a.877.877,0,0,1-.67-.184.931.931,0,0,1-.362-.6l-.031-.123a.768.768,0,0,1,.155-.624.817.817,0,0,1,.569-.331,9.713,9.713,0,0,0,5.539-2.181,7.832,7.832,0,0,0,2.011-5.2.11.11,0,0,0-.124-.124h-4.869a.18.18,0,0,0-.184.124,12.136,12.136,0,0,1-2.387,3.713.82.82,0,0,1-.617.285A.916.916,0,0,1,403.455,702.767Z" transform="translate(-403.038 -695.294)" fill="#5082f4"/>
        <path id="パス_74" data-name="パス 74" d="M419.89,702.109a.9.9,0,0,1-.877-.879v-.107a.816.816,0,0,1,.262-.609.853.853,0,0,1,.615-.254h10.4a.859.859,0,0,1,.617.254.771.771,0,0,1,.246.609,6.707,6.707,0,0,1-2.318,5.092,11.574,11.574,0,0,1-6.479,2.2.9.9,0,0,1-.663-.2.933.933,0,0,1-.354-.6l-.031-.122a.736.736,0,0,1,.161-.617.806.806,0,0,1,.578-.307,10.846,10.846,0,0,0,4.63-1.3,4.677,4.677,0,0,0,2.195-3.027c.021-.083-.01-.123-.093-.123Zm1.125-5.855h8.319a.86.86,0,0,1,.617.253.822.822,0,0,1,.262.61v.107a.894.894,0,0,1-.879.879h-8.319a.9.9,0,0,1-.878-.879v-.107a.819.819,0,0,1,.263-.61A.854.854,0,0,1,421.016,696.254Z" transform="translate(-403.866 -695.329)" fill="#5082f4"/>
        <path id="パス_75" data-name="パス 75" d="M436.678,707.619a.856.856,0,0,1-.617-.255.816.816,0,0,1-.262-.608v-.109a.894.894,0,0,1,.879-.877H444.7c.093,0,.138-.041.138-.123v-6.934c0-.083-.046-.123-.138-.123h-8.026a.894.894,0,0,1-.879-.878V697.6a.816.816,0,0,1,.262-.608.852.852,0,0,1,.617-.255h9.352a.871.871,0,0,1,.863.863v9.153a.871.871,0,0,1-.863.863Z" transform="translate(-404.736 -695.354)" fill="#5082f4"/>
        <path id="パス_76" data-name="パス 76" d="M451.33,705.37l-.046-.216a.779.779,0,0,1,.1-.646.882.882,0,0,1,.547-.4q6.023-1.525,9.059-4.729c.021-.01.024-.029.008-.055a.065.065,0,0,0-.053-.038h-8.013a.894.894,0,0,1-.877-.879V698.3a.816.816,0,0,1,.262-.609.853.853,0,0,1,.615-.254h3.559a.123.123,0,0,0,.139-.139v-1.156a.868.868,0,0,1,.863-.863h.415a.859.859,0,0,1,.617.255.82.82,0,0,1,.261.608V697.3c0,.093.042.139.124.139h3.82a.858.858,0,0,1,.617.254.823.823,0,0,1,.262.609v.107a2.546,2.546,0,0,1-.493,1.587,11.637,11.637,0,0,1-2.419,2.389c-.072.051-.077.1-.016.138q1.294.924,2.974,2.188a.786.786,0,0,1,.331.57.808.808,0,0,1-.193.631l-.169.185a.889.889,0,0,1-.593.323.879.879,0,0,1-.655-.169q-1.387-1.048-3.359-2.45a.618.618,0,0,1-.169-.186c-.031-.02-.052-.025-.063-.014a.086.086,0,0,0-.014.061.479.479,0,0,0,.007.063.415.415,0,0,1,.008.077v3.958a.823.823,0,0,1-.261.61.859.859,0,0,1-.617.254h-.415a.866.866,0,0,1-.863-.864v-2.972c0-.093-.042-.118-.123-.077a28.86,28.86,0,0,1-4.1,1.308.828.828,0,0,1-.67-.1A.873.873,0,0,1,451.33,705.37Z" transform="translate(-405.537 -695.278)" fill="#5082f4"/>
      </g>
    </g>
    <g id="グループ化_67" data-name="グループ化 67" transform="translate(126.516 25.771)">
      <path id="パス_77" data-name="パス 77" d="M401.178,683.787a3.188,3.188,0,0,1,.012,4.438,6.232,6.232,0,0,0,5.839-4.347" transform="translate(-400.488 -683.076)" fill="#ffe000"/>
      <g id="グループ化_66" data-name="グループ化 66">
        <path id="パス_78" data-name="パス 78" d="M400.645,684.244a2.512,2.512,0,0,1,.011,3.448.709.709,0,0,0,.5,1.2,7.025,7.025,0,0,0,6.515-4.862c.281-.858-1.071-1.226-1.351-.372a5.586,5.586,0,0,1-5.164,3.833l.495,1.2a3.944,3.944,0,0,0-.011-5.429c-.619-.658-1.608.334-.991.991Z" transform="translate(-400.45 -683.037)" fill="#ffe000"/>
      </g>
    </g>
    <circle id="楕円形_7" data-name="楕円形 7" cx="0.955" cy="0.955" r="0.955" transform="translate(127.568 17.353)" fill="#ffe000"/>
    <circle id="楕円形_8" data-name="楕円形 8" cx="0.955" cy="0.955" r="0.955" transform="translate(130.629 17.353)" fill="#ffe000"/>
    <circle id="楕円形_9" data-name="楕円形 9" cx="0.955" cy="0.955" r="0.955" transform="translate(133.691 17.353)" fill="#ffe000"/>
  </g>
</svg>
